<?xml version="1.0" encoding="utf-8"?>
<!-- Generator: Adobe Illustrator 19.0.0, SVG Export Plug-In . SVG Version: 6.00 Build 0)  -->
<svg version="1.1" id="图层_1" xmlns="http://www.w3.org/2000/svg" xmlns:xlink="http://www.w3.org/1999/xlink" x="0px" y="0px"
	 viewBox="-442 244 14 14" style="enable-background:new -442 244 14 14;" xml:space="preserve">
<style type="text/css">
	.st0{fill:#999999;}
</style>
<path class="st0" d="M-428.1,249.6c-0.1-0.4-0.3-0.7-0.7-0.7h-0.1c-1,0-1.7-0.8-1.7-1.7c0-0.3,0.1-0.6,0.2-0.7
	c0.2-0.4,0-0.8-0.3-1.1l0,0l-1.7-1l0,0c-0.1,0-0.2-0.1-0.4-0.1c-0.3,0-0.5,0.1-0.7,0.3c-0.2,0.2-0.9,0.8-1.4,0.8s-1.2-0.6-1.4-0.8
	c-0.2-0.2-0.4-0.3-0.7-0.3c-0.1,0-0.2,0-0.4,0.1l0,0l-1.8,1l0,0c-0.3,0.2-0.5,0.7-0.3,1.1c0,0,0.2,0.4,0.2,0.7c0,1-0.8,1.7-1.7,1.7
	h-0.1c-0.3,0-0.6,0.3-0.7,0.7c0,0-0.1,0.8-0.1,1.4s0.1,1.3,0.1,1.4c0.1,0.4,0.3,0.7,0.7,0.7h0.1c1,0,1.7,0.8,1.7,1.7
	c0,0.3-0.1,0.7-0.2,0.7c-0.2,0.4,0,0.8,0.3,1.1l0,0l1.7,1l0,0c0.1,0,0.2,0.1,0.4,0.1c0.3,0,0.5-0.1,0.7-0.3c0.2-0.3,0.9-0.8,1.4-0.8
	s1.2,0.6,1.4,0.8c0.2,0.2,0.4,0.3,0.7,0.3c0.1,0,0.2,0,0.4-0.1l0,0l1.8-1l0,0c0.3-0.2,0.5-0.7,0.3-1.1c0,0-0.2-0.4-0.2-0.7
	c0-1,0.8-1.7,1.7-1.7h0.1c0.3,0,0.6-0.3,0.7-0.7c0,0,0.1-0.8,0.1-1.4S-428.1,249.7-428.1,249.6z M-429,251c0,0.4-0.1,0.9-0.1,1.1
	c-0.7,0-1.3,0.3-1.7,0.8c-0.5,0.5-0.7,1.2-0.7,1.9c0,0.4,0.1,0.8,0.2,1l-1.6,0.9c-0.1-0.1-0.3-0.3-0.6-0.5c-0.5-0.4-1-0.6-1.5-0.6
	s-1,0.2-1.5,0.6c-0.3,0.2-0.5,0.5-0.6,0.5l-1.5-0.8c0.1-0.2,0.2-0.6,0.2-1c0-0.7-0.3-1.3-0.7-1.9c-0.5-0.5-1.1-0.8-1.7-0.8
	c0-0.2-0.1-0.7-0.1-1.1c0-0.4,0.1-0.9,0.1-1.1c0.7,0,1.3-0.3,1.7-0.8c0.5-0.5,0.7-1.2,0.7-1.9c0-0.4-0.1-0.8-0.2-1l1.6-0.9l0,0
	c0.1,0.1,0.3,0.3,0.6,0.5c0.5,0.4,1,0.6,1.5,0.6c0.4,0,0.9-0.2,1.4-0.5c0.3-0.2,0.5-0.5,0.6-0.5l0,0l1.5,0.9c-0.1,0.2-0.2,0.6-0.2,1
	c0,0.7,0.3,1.3,0.7,1.9c0.5,0.5,1.1,0.8,1.7,0.8C-429,250.1-429,250.6-429,251L-429,251z"/>
<path class="st0" d="M-435,248.5c-1.4,0-2.5,1.1-2.5,2.5s1.1,2.5,2.5,2.5c1.4,0,2.5-1.1,2.5-2.5S-433.8,248.5-435,248.5z
	 M-435,252.5c-0.8,0-1.5-0.7-1.5-1.5s0.7-1.5,1.5-1.5c0.8,0,1.5,0.7,1.5,1.5S-434.3,252.5-435,252.5z"/>
</svg>
