<?xml version="1.0" encoding="utf-8"?>
<!-- Generator: Adobe Illustrator 19.0.0, SVG Export Plug-In . SVG Version: 6.00 Build 0)  -->
<svg version="1.1" id="图层_1" xmlns="http://www.w3.org/2000/svg" xmlns:xlink="http://www.w3.org/1999/xlink" x="0px" y="0px"
	 viewBox="40 -40 100 100" style="enable-background:new 40 -40 100 100;" xml:space="preserve">
<style type="text/css">
	.st0{fill:#DC4D3D;}
	.st1{fill:#1376B8;}
	.st2{font-family:'Gadugi';}
	.st3{font-size:34.971px;}
</style>
<g>
	<path class="st0" d="M97.5-35.2c0-1.2-0.2-2.4-0.3-3.6c1.9,2.3,2.3,5.6,1.3,8.3c-1.3,3.8-4.3,6.8-7.3,9.3c-2.5,2-5.1,4.2-6,7.4
		c-0.6,2.3,0.3,4.6,1.5,6.6c1.3,2.1,2.9,4,3.9,6.2c-2.5-2.2-4.8-4.4-6.9-7.1c-1.2-1.7-2.4-3.7-2.3-5.9c0-1.9,1.3-3.5,2.6-4.9
		c3.4-3.6,7.9-6,11.1-9.9C96.4-30.6,97.5-32.9,97.5-35.2z"/>
	<path class="st0" d="M95.4-20.2c3.1-2.1,6.6-3.6,10.2-4.5c-3.3,2.1-6.8,4-9.5,6.9c-1.1,1.2-2.1,2.9-1.6,4.6
		c0.6,2.1,2.2,3.6,3.2,5.5c0.7,1.4,0.6,3.2-0.2,4.5c-1.2,1.9-3,3.4-5,4.5c1.2-1.2,2.3-2.6,2.2-4.4c0-1.4-1-2.5-1.8-3.6
		c-1.7-2.1-2.9-4.7-2.4-7.4C91.1-16.7,93.2-18.7,95.4-20.2z"/>
	<path class="st1" d="M106-0.3c1-1.1,2.6-1.3,4-1.3c2.1,0,4.3,1.1,5.1,3.1c0.8,1.8,0.3,3.8-0.9,5.3c-2.4,2.9-6.1,4.1-9.5,5.3
		c0-0.1,0.1-0.3,0.1-0.4c2.3-1.1,4.6-2.6,6.3-4.5c1-1.2,1.9-2.8,1.6-4.5c-0.4-2.1-2.5-3.5-4.6-3.3C107.3-0.7,106.7-0.5,106-0.3z
		 M73,0.9c3-1.2,6.3-2.1,9.6-2c-2.1,0.7-4.4,1.1-6.3,2.2c-0.4,0.2-0.7,0.6-1,0.9c0.8,0.7,1.9,0.9,2.9,1c4.7,0.5,9.5,0.3,14.2,0
		c3.7-0.3,7.5-0.7,11.2-1.3c0.5-0.1,1-0.1,1.5-0.1c-1.3,0.4-2.5,1.3-3.8,1.8c-6.1,1.4-12.4,1.7-18.7,1.7c-3.2-0.1-6.4-0.2-9.5-0.9
		c-1-0.3-2.1-0.5-2.6-1.3C70.9,1.8,72,1.4,73,0.9z M76.1,8.8c0.8-1.1,2.2-1.6,3.5-2c-0.3,0.4-0.7,0.9-1,1.5c0.4,0.7,1.2,1,1.9,1.1
		c2.1,0.3,4.1,0.3,6.2,0.5C91,10,95.2,9.4,99.4,8.7c0.9,0.7,1.8,1.3,2.9,1.7c-6.4,1.8-13.2,2.5-19.8,1.8c-2-0.3-4-0.6-5.8-1.6
		C76.3,10.1,75.6,9.4,76.1,8.8z M78.5,15.5c0.8-0.6,1.8-0.9,2.8-1.3c-0.3,0.3-0.5,0.6-0.7,0.8c0.1,0.7,0.9,1,1.5,1.1
		c4.6,0.7,9.3,0.7,13.8-0.1c0.7-0.1,1.4-0.4,2.1,0c1.1,0.6,2.2,1.2,3.4,1.6c-4.2,1.9-8.8,2.6-13.4,2.4c-2.4,0-4.7-0.4-7-1.2
		c-1.1-0.4-2.3-0.9-2.8-2C77.9,16.3,78.1,15.8,78.5,15.5z"/>
	<path class="st1" d="M67.7,20.9c2.6-1.1,5.6-2.1,8.4-1.3c-2.1,0.4-4.2,0.7-6,1.8c-0.3,0.2-0.8,0.5-0.7,1c0.3,0.3,0.8,0.5,1.2,0.7
		c2.4,0.9,4.9,1.1,7.5,1.4c6.7,0.5,13.5,0.4,20.2,0c3.7-0.4,7.4-0.6,11-1.7c1-0.3,1.9-0.8,2.5-1.6c-0.1-0.4-0.3-0.8-0.4-1.2
		c0.6,0.3,1.1,0.8,1.4,1.4c-0.3,0.6-0.8,1.2-1.4,1.5c-2.5,1.4-5.3,2-8.1,2.5c-6.4,1.1-12.9,1.5-19.3,1.3C78.6,26.5,73.1,26,67.8,25
		c-1-0.3-2.4-0.5-2.6-1.6C65.3,21.9,66.7,21.4,67.7,20.9z"/>
	<path class="st1" d="M113.7,24.7c0.7-0.3,1.2-1,1.9-1.3c-0.8,2.5-3.4,3.5-5.6,4.2c-4.8,1.5-9.9,1.8-15,2.1
		c-4.4,0.1-8.7,0.1-13.1-0.3c-2.7-0.3-5.4-0.6-7.9-1.6c0.9,0,1.7,0.1,2.5,0.3c4,0.5,8.1,0.6,12.2,0.6c5.3,0,10.5-0.4,15.7-1.3
		C107.6,26.8,110.8,26.2,113.7,24.7z"/>
</g>
<g>
	<text transform="matrix(1 0 0 1 58.496 58.7635)" class="st0 st2 st3">Java</text>
</g>
</svg>
