<?xml version="1.0" encoding="utf-8"?>
<!-- Generator: Adobe Illustrator 19.0.0, SVG Export Plug-In . SVG Version: 6.00 Build 0)  -->
<svg version="1.1" id="图层_1" xmlns="http://www.w3.org/2000/svg" xmlns:xlink="http://www.w3.org/1999/xlink" x="0px" y="0px"
	 viewBox="68 -40 100 100" style="enable-background:new 68 -40 100 100;" xml:space="preserve">
<style type="text/css">
	.st0{fill:#00758F;}
	.st1{fill:#F2A72F;}
</style>
<path class="st0" d="M139.2-11.2l-0.6-1.2c-0.2-0.3-0.6-0.6-0.8-1h-0.1v-0.1c0.3-0.1,0.7-0.1,1-0.1c0.2,0.2,0.5,0.3,0.7,0.6
	c0.1,0.2,0.1,0.4,0.3,0.5C139.7-11.9,139.6-11.5,139.2-11.2C139.2-11.3,139.2-11.2,139.2-11.2z M164.9,14.5c-1-0.6-2.1-0.9-3.1-1.5
	c-0.6-0.3-1.1-0.8-1.6-1.1c-0.5-0.4-1-1-1.3-1.5c-0.2-0.3-0.2-0.6-0.4-0.8c0.1-0.5,0.7-0.5,1-0.6c1.3-0.6,2.9-0.7,4.9-0.7
	c-0.1-0.5-1.3-1.1-1.7-1.4c-0.8-0.6-1.7-1.2-2.5-1.7c-0.5-0.3-1.2-0.5-1.7-0.7c-0.7-0.3-2.2-0.6-2.6-1.1c-0.7-1-1.3-2.2-1.8-3.4
	c-0.5-1.2-1.2-2.4-1.7-3.7c-0.3-0.6-0.4-1.1-0.7-1.7c-1.9-3.5-4.6-6.5-7.9-8.6c-1.1-0.7-2.3-1.3-3.6-1.7c-0.8-0.2-1.7-0.1-2.5-0.3
	h-0.5c-0.5-0.1-0.8-0.6-1.2-0.9c-0.8-0.5-1.6-0.9-2.5-1.3c-0.3-0.1-1.3-0.5-1.6-0.2c-0.2,0.1-0.3,0.1-0.3,0.3c-0.2,0.3,0,0.7,0.1,1
	c0.4,0.8,0.9,1.3,1.4,1.9c0.4,0.6,1,1.3,1.3,1.9c0.6,1.4,0.9,3,1.6,4.3c0.2,0.5,0.6,1.1,0.9,1.6c0.3,0.4,0.8,0.7,0.9,1.1
	c0.3,0.5-0.5,2.2-0.6,2.7c-0.7,2-0.5,4.9,0.2,6.7c0.3,0.7,0.6,1.5,1.4,1.7c0.1,0,0,0,0.1-0.1c0.2-1.4,0.2-2.7,0.7-3.8
	c0.3-0.7,0.8-1.1,1.2-1.7c0.3,0.2,0.3,0.6,0.4,0.9c0.3,0.8,0.7,1.6,1.1,2.4c0.8,1.6,1.8,3.2,2.8,4.6c0.4,0.5,0.9,1,1.3,1.5
	c0.2,0.2,0.4,0.3,0.6,0.5h0.1v0.1c-0.8-0.3-1.2-1-1.8-1.5c-1.2-0.9-2.5-2.2-3.3-3.4l-1-2.1V2.5c-0.1,0.2-0.1,0.4-0.2,0.7
	c-0.3,1.3-0.1,2.7-1.2,3.1c-1.3,0.5-2.2-0.8-2.7-1.5c-1.3-2.1-1.6-5.6-0.7-8.4c0.2-0.6,0.2-1.4,0.6-1.9c-0.1-0.4-0.4-0.6-0.6-0.9
	c-0.3-0.5-0.6-1-0.9-1.5c-0.5-1-0.9-2.3-1.3-3.4c-0.2-0.5-0.2-0.9-0.4-1.3c-0.3-0.7-0.8-1.3-1.3-1.9c-0.6-0.8-2.3-2.4-1.6-4.1
	c1.1-2.6,4.8-0.6,6.2,0.3c0.4,0.2,0.8,0.7,1.1,0.9l1.9,0.1c1.2,0.3,2.3,0.5,3.2,1c4.4,2.5,7.2,5.1,9.8,9.4C153.3-6,153.6-5,154-4
	c0.6,1.5,1.3,2.9,2.1,4.3c0.3,0.7,0.6,1.4,1,1.9c0.2,0.2,0.7,0.3,1,0.5c0.8,0.4,1.8,0.7,2.7,1.3c1.5,0.9,2.9,2,4.1,3.1
	c0.5,0.4,0.8,1,1.3,1.5v0.2c-0.4,0.1-0.8,0.2-1.2,0.3c-0.9,0.2-1.7,0.2-2.5,0.4c-0.5,0.1-1.2,0.3-1.7,0.4l0.1,0.1
	c0.3,0.9,2.1,1.7,2.9,2.2c1,0.7,1.9,1.5,2.7,2.5l0.7,0.7c0.2,0.2,0.2,0.6,0.4,0.8v0.1c-0.3-0.1-0.5-0.4-0.8-0.6
	C166.1,15.3,165.5,14.9,164.9,14.5L164.9,14.5z M104,31.5H93.6v-2.2h10.4c2.1-0.2,1.9-1.3,1.9-1.6v-0.9h-7c-3.3,0-5.3-1.4-5.4-3.1
	c0-0.2,0.1-7.3,0-7.3h3.3v7.1c0,0.4,0.1,1.3,1.9,1.3c0.9,0,7.1,0,7.2,0v-8.5h3.3c0,0,0,11.6,0,11.6C109.3,30.8,105.7,31.4,104,31.5z
	 M87.5,14l-5.1,11.3c-0.6,1.4-1.4,1.8-3,1.8c-1.6,0-2.4-0.5-3-1.8L71.3,14v12.9H68V14c0-1.3,0.5-1.9,1.6-2.2
	c2.5-0.8,4.2-0.1,4.9,1.6l4.8,11.1l5-11.1c0.8-1.7,2.4-2.3,4.9-1.6c1,0.3,1.6,0.9,1.6,2.2v12.9h-3.3C87.5,26.9,87.5,14,87.5,14z"/>
<path class="st1" d="M133.4,11.8h6.3c0.3,0,0.6,0,0.9,0.1c2.8,0.4,4.2,1.6,4.2,3.6v7.8c0,1.6-0.6,2.5-2,3l3.2,2.9h-3.8l-2.6-2.4
	l-2.6,0.2h-3.5c-0.7,0-1.3-0.1-1.9-0.3c-2.1-0.6-3.1-1.7-3.1-3.5v-7.8c0-2,1.4-3.2,4.2-3.6C132.8,11.8,133.1,11.8,133.4,11.8z
	 M131.9,23c0,0.1,0,0.2,0.1,0.3c0.2,0.9,1,1.4,2.3,1.4h3l-2.7-2.5h3.8l2.4,2.2c0.4-0.2,0.7-0.6,0.8-1.1c0-0.1,0-0.2,0-0.3v-7.5
	c0-0.1,0-0.2,0-0.3c-0.2-0.8-1-1.3-2.3-1.3h-5c-1.5,0-2.4,0.6-2.4,1.6C131.9,15.6,131.9,23,131.9,23z M116.7,13.9
	c-1.2,0.1-1.5,0.3-1.7,1c0,0.1,0,0.2,0,0.3v1.5c0,0.1,0,0.2,0,0.3c0.2,0.9,0.8,1.3,2.1,1.3h4c1,0,2,0.2,2.8,0.5
	c1.6,0.6,2.3,1.5,2.3,2.4v2.4c0,1.2-0.7,2-2.1,2.7c-0.8,0.4-1.9,0.6-3,0.6h-9.5v-2.2h9.1c0.1,0,0.2,0,0.3,0c0.6,0,1.1-0.2,1.4-0.5
	c0.3-0.3,0.5-0.5,0.5-0.8v-1.9c0-0.2-0.1-0.4-0.3-0.6c-0.3-0.4-0.8-0.6-1.8-0.6c-0.1,0-0.2,0-0.3,0h-3.4c-0.3,0-0.6,0-1,0
	c-2.8-0.3-4.5-1.5-4.5-3v-1.9c0-1.7,0.9-2.6,2.8-3.2c0.6-0.2,1.3-0.3,2.7-0.3h9.2v2.2H117C116.9,13.9,116.8,13.9,116.7,13.9z
	 M150.1,23c0,1.2,0.7,1.6,2.7,1.6h8.6v2.2h-8.6c-0.3,0-0.6,0-1,0c-3.4-0.2-5.1-1.5-5.1-3.7V11.7h3.3C150.1,11.7,150.1,23,150.1,23z
	 M165.4,22.2c1.3,0,2.4,1,2.4,2.4c0,1.4-1.1,2.4-2.4,2.4s-2.4-1-2.4-2.4C163,23.1,164.1,22.2,165.4,22.2z M165.4,26.5
	c1,0,1.9-0.8,1.9-1.9c0-1.1-0.8-1.9-1.9-1.9c-1.1,0-1.9,0.8-1.9,1.9C163.5,25.7,164.3,26.5,165.4,26.5z M166.5,24
	c0,0.5-0.3,0.7-0.7,0.7l0.8,1.2h-0.5l-0.7-1.2h-0.4V26h-0.5v-2.8h1.1C166.2,23.2,166.5,23.4,166.5,24z M164.9,23.6v0.8h0.5
	c0.3,0,0.7,0,0.7-0.4c0-0.3-0.3-0.4-0.6-0.4C165.4,23.6,164.9,23.6,164.9,23.6z"/>
</svg>
