<?xml version="1.0" encoding="utf-8"?>
<!-- Generator: Adobe Illustrator 19.0.0, SVG Export Plug-In . SVG Version: 6.00 Build 0)  -->
<svg version="1.1" id="图层_1" xmlns="http://www.w3.org/2000/svg" xmlns:xlink="http://www.w3.org/1999/xlink" x="0px" y="0px"
	 viewBox="23 3 14 14" style="enable-background:new 23 3 14 14;" xml:space="preserve">
<style type="text/css">
	.st0{fill:#999999;}
</style>
<g id="XMLID_3_">
	<g id="XMLID_4_" transform="scale(0.0390625, 0.0390625)">
		<path id="XMLID_5_" class="st0" d="M856.7,406.6c-1.8,0.1-3.2,0.2-4.6,0.2c-56.5,0-113,0-169.5,0c-4.8,0-4.8,0-4.8-4.9
			c0-4,0-8,0-11.9c0-3.4,1.4-4.7,4.8-4.7c11.8,0,23.6,0,35.5,0c4.9,0,5.4-0.6,5.4-5.3c0-4,0-8,0-11.9c-0.1-4.4-1.1-5.5-5.5-5.5
			c-36,0-72,0-107.9,0c-9.4,0-16-4.2-19.4-13c-0.9-2.4-1.6-5.1-1.6-7.6c-0.1-75.3,0-150.6-0.1-225.9c0-8.8,4.7-14.3,11.2-18.6
			c2.3-1.5,5.5-1.8,8.3-2.2c2.6-0.4,5.3-0.1,8-0.1c102.4,0,204.8,0,307.1,0c7.3,0,13.8,2.1,18.4,8c3,3.9,5.5,7.7,5.5,13.5
			c-0.3,74.9-0.2,149.8-0.2,224.6c0,3.7,0,6.9-3.1,10.2c-2.2,2.3-3.5,5.8-6.6,7.4c-2.8,1.5-6,3.5-9,3.5c-18.8,0.4-37.6,0.2-56.4,0.2
			c-18.4,0-36.7,0-55.1,0c-4.6,0-4.7,0.1-4.7,4.7c0,4.7,0.2,9.5-0.1,14.2c-0.2,3.5,1.6,3.9,4.3,3.9c11.6-0.1,23.2,0,34.8,0
			c5,0,5.5,0.5,5.5,5.5C856.7,395.9,856.7,401.1,856.7,406.6z M611,116.9c-0.1,2.3-0.4,4.1-0.4,5.9c0,16,0,32,0,48
			c0,39.9,0,79.7,0,119.6c0,6,0,6,6,6c100.9,0,201.7,0,302.6,0c4.8,0,5.8-1,5.8-5.8c0-56.2,0-112.3,0-168.5c0-4.8-0.4-5.1-5.1-5.1
			c-101.6,0-203.2,0-304.8,0C613.9,116.9,612.7,116.9,611,116.9z M741.7,201.6c-4.7,0.4-8.8-0.6-12.7-3.5c-0.6-0.4-2.3,0-3,0.6
			c-8.5,6.7-16.9,13.6-25.4,20.3c-5.4,4.2-10.9,8.3-16.3,12.5c-2.1,1.7-4.2,3.5-1.6,6.4c0.4,0.4,0.4,1.3,0.3,1.9
			c-2,6.8-4,13.6-11.3,17c-9.4,4.3-18.2,1.8-24.6-6c-3.8-4.6-4.6-10-3.5-15.4c1.3-6.2,4.8-11.3,11-13.7c3.3-1.3,7-1.4,10.5-2
			c0.7-0.1,1.6-0.1,2.2,0.3c5.2,3.3,9,1.4,13.2-2.4c4.8-4.5,10.4-8.3,15.7-12.3c7.7-6,15.6-11.9,23.2-18.1c1.2-1,2.1-3.1,2.1-4.7
			c-0.2-7.3,3.3-13,8.8-16.6c5.3-3.4,11.6-4.2,18-1.4c3.5,1.5,6.3,3.4,8.4,6.5c3.9,5.9,5,11.9,2.1,18.7c-0.6,1.3,0.8,3.8,2,5.2
			c4.8,5.9,10.2,11.2,14.4,17.4c2.2,3.3,4.4,2.8,7.2,3c3.6,0.2,7.4-1.1,10.7,1.8c0.4,0.4,2.3-0.3,3.1-1c5.6-5.1,11.2-10.4,16.7-15.6
			c9.5-8.8,18.8-17.6,28.3-26.4c3.2-3,6.6-5.7,9.7-8.9c1.1-1.1,1.8-2.9,2-4.5c0.3-2.5-0.4-5.2-0.1-7.7c0.8-6,2.9-11.3,8.6-14.2
			c3.1-1.5,6.5-3.5,9.7-3.5c5.6,0.1,11.2,1.9,15.3,6.2c5.7,5.9,5.5,13.5,4,20.5c-1.2,5.2-5.5,9.1-10.8,10.9c-2.9,1-6.2,1.3-9.3,1.8
			c-0.6,0.1-1.4,0.1-1.9-0.2c-5.6-3.9-8.4,0.5-11.8,3.7c-5.4,5.2-11.1,10.2-16.6,15.3c-8,7.5-16.1,15-24.1,22.6
			c-4,3.7-8,7.4-11.8,11.3c-0.9,0.9-1.6,2.8-1.5,4.1c0.9,8.4-2.3,15.2-9.2,19.3c-4.5,2.6-10,4.1-15.8,1.6c-4-1.8-7.8-3.4-10.2-7.2
			c-3.5-5.6-5.1-11.5-2.1-18c0.9-2,1.2-4.2-0.8-6.4c-5.1-5.8-9.7-12.1-14.6-18c-0.7-0.8-1.9-1.3-2.8-1.4
			C745.4,201.2,743.5,201.5,741.7,201.6z M669.2,239.1c-0.1-3.8-2.2-5.7-6.4-5.7c-3.8,0-6.1,2.3-6,6.1c0.1,3.8,2.5,6.2,6.2,6.2
			C666.1,245.7,669.2,242.4,669.2,239.1z M872.4,149c-4.1,0-6.1,1.9-6.2,5.9c-0.1,3.8,2.3,6.4,5.8,6.4c3,0,6.6-3.3,6.6-6.2
			C878.7,151.9,875.8,149.1,872.4,149z M777.8,233.9c-0.1,4.4,1.4,6.2,5.4,6.2s6.8-2.4,6.9-5.9c0-2.1-3.3-6.6-6.3-6.5
			C779.9,227.8,777.9,229.8,777.8,233.9z M747.3,182.6c-1.4-4.8-4-7.4-9.2-5.7c-2.9,0.9-3,3.5-3.7,5.5c-0.7,1.9,2.8,5.6,5.7,6.1
			C744.6,189.2,746,185.6,747.3,182.6z"/>
	</g>
</g>
</svg>
