<?xml version="1.0" encoding="utf-8"?>
<!-- Generator: Adobe Illustrator 19.0.0, SVG Export Plug-In . SVG Version: 6.00 Build 0)  -->
<svg version="1.1" id="图层_1" xmlns="http://www.w3.org/2000/svg" xmlns:xlink="http://www.w3.org/1999/xlink" x="0px" y="0px"
	 viewBox="0 4 14 14" style="enable-background:new 0 4 14 14;" xml:space="preserve">
<style type="text/css">
	.st0{fill:#999999;}
</style>
<path class="st0" d="M6,7.3c-0.1,0-0.2,0-0.3,0.1c0,0,0,0,0,0L3.6,9.6c-0.1,0.1-0.1,0.3,0,0.5c0.1,0.1,0.3,0.1,0.5,0l1.6-1.6v5.9
	c0,0.2,0.1,0.3,0.3,0.3s0.3-0.1,0.3-0.3l0-6.7C6.3,7.5,6.2,7.3,6,7.3z M7,4c-3.9,0-7,3.1-7,7c0,3.9,3.1,7,7,7c3.9,0,7-3.1,7-7
	C14,7.1,10.9,4,7,4z M7,17.3c-3.5,0-6.3-2.8-6.3-6.3c0-3.5,2.8-6.3,6.3-6.3c3.5,0,6.3,2.8,6.3,6.3S10.5,17.3,7,17.3z M9.9,11.9
	l-1.6,1.6V7.7c0-0.2-0.1-0.3-0.3-0.3c-0.2,0-0.3,0.1-0.3,0.3v6.7c0,0.2,0.1,0.3,0.3,0.3c0.1,0,0.2,0,0.3-0.1c0,0,0,0,0,0l2.1-2.1
	c0.1-0.1,0.1-0.3,0-0.5C10.3,11.8,10,11.8,9.9,11.9z"/>
</svg>
