<?xml version="1.0" encoding="utf-8"?>
<!-- Generator: Adobe Illustrator 19.0.0, SVG Export Plug-In . SVG Version: 6.00 Build 0)  -->
<svg version="1.1" id="图层_1" xmlns="http://www.w3.org/2000/svg" xmlns:xlink="http://www.w3.org/1999/xlink" x="0px" y="0px"
	 viewBox="-433 235 32 32" style="enable-background:new -433 235 32 32;" xml:space="preserve">
<style type="text/css">
	.st0{fill:#999999;}
</style>
<path class="st0" d="M-429,263h26v2h-28v-28h2V263z M-423.1,259.8c-1.5,0-2.6-1.2-2.6-2.6c0-1.4,1.2-2.6,2.6-2.6c0.1,0,0.2,0,0.2,0
	l2.8-4.7c-0.3-0.4-0.4-0.9-0.4-1.4c0-1.5,1.2-2.6,2.6-2.6c1.4,0,2.6,1.2,2.6,2.6c0,0.5-0.2,1-0.4,1.4l2.8,4.7c0.1,0,0.2,0,0.2,0
	c0.1,0,0.1,0,0.2,0l4.7-8.2c-0.3-0.4-0.5-0.9-0.5-1.5c0-1.5,1.2-2.6,2.6-2.6c1.4,0,2.6,1.2,2.6,2.6c0,1.4-1.2,2.6-2.6,2.6
	c-0.1,0-0.1,0-0.2,0l-4.7,8.1c0.3,0.4,0.5,0.9,0.5,1.5c0,1.4-1.2,2.6-2.6,2.6c-1.4,0-2.6-1.2-2.6-2.6c0-0.5,0.2-1,0.4-1.4l-2.8-4.7
	c-0.1,0-0.1,0-0.2,0s-0.2,0-0.2,0l-2.8,4.7c0.3,0.4,0.4,0.9,0.4,1.4C-420.5,258.6-421.7,259.8-423.1,259.8z"/>
</svg>
