<?xml version="1.0" encoding="utf-8"?>
<!-- Generator: Adobe Illustrator 19.0.0, SVG Export Plug-In . SVG Version: 6.00 Build 0)  -->
<svg version="1.1" id="图层_1" xmlns="http://www.w3.org/2000/svg" xmlns:xlink="http://www.w3.org/1999/xlink" x="0px" y="0px"
	 viewBox="111.3 3 14 14" style="enable-background:new 111.3 3 14 14;" xml:space="preserve">
<style type="text/css">
	.st0{fill:#999999;}
</style>
<path class="st0" d="M118.3,17c-3.9,0-7-3.1-7-6.9c0-3.8,3.1-6.9,7-6.9s7,3.1,7,6.9C125.3,13.9,122.2,17,118.3,17z M118.3,4
	c-3.3,0-6.1,2.7-6.1,6c0,3.3,2.7,6,6.1,6s6.1-2.7,6.1-6C124.4,6.7,121.7,4,118.3,4z M119.1,14.2C119.1,14.2,119.1,14.2,119.1,14.2
	l-0.1,0.2c0,0,0,0,0,0c0,0,0,0,0,0c-0.1,0.1-0.1,0.1-0.2,0.1c0,0,0,0,0,0c0,0-0.1,0-0.1,0c0,0,0,0,0,0l0,0c0,0-0.1,0-0.1,0
	c-0.3,0-0.5-0.2-0.6-0.4l-2.2-5.5H115c-0.4,0-0.7-0.3-0.7-0.7c0,0,0,0,0,0c0-0.4,0.3-0.7,0.7-0.7h1c0.2,0,0.4,0.1,0.5,0.2
	c0.1,0.1,0.2,0.2,0.2,0.3l2,5.1l2.6-4.7c0.1-0.2,0.4-0.3,0.6-0.2c0.2,0.1,0.3,0.4,0.2,0.6c0,0,0,0,0,0
	C122.2,8.6,119.1,14.2,119.1,14.2z"/>
</svg>
