<?xml version="1.0" encoding="utf-8"?>
<!-- Generator: Adobe Illustrator 19.0.0, SVG Export Plug-In . SVG Version: 6.00 Build 0)  -->
<svg version="1.1" id="图层_1" xmlns="http://www.w3.org/2000/svg" xmlns:xlink="http://www.w3.org/1999/xlink" x="0px" y="0px"
	 viewBox="111 3 14 14" style="enable-background:new 111 3 14 14;" xml:space="preserve">
<style type="text/css">
	.st0{fill:#999999;}
</style>
<path class="st0" d="M116.4,9.6h-4.8c-0.2,0-0.4,0.2-0.4,0.4s0.2,0.4,0.4,0.4h4.8c0.2,0.7,0.9,1.3,1.6,1.3s1.5-0.5,1.6-1.3h4.8
	c0.2,0,0.4-0.2,0.4-0.4c0-0.2-0.2-0.4-0.4-0.4h-4.8c-0.2-0.7-0.9-1.3-1.6-1.3S116.6,8.8,116.4,9.6z M118.8,9.6
	c0.1,0.1,0.1,0.3,0.1,0.4c0,0.2-0.1,0.3-0.1,0.4c-0.1,0.3-0.4,0.5-0.8,0.5c-0.3,0-0.6-0.2-0.8-0.5c-0.1-0.1-0.1-0.3-0.1-0.4
	c0-0.2,0.1-0.3,0.1-0.4c0.1-0.3,0.4-0.5,0.8-0.5C118.3,9.1,118.6,9.3,118.8,9.6z"/>
<path class="st0" d="M113.5,4.3h-1.9c-0.2,0-0.4,0.2-0.4,0.4s0.2,0.4,0.4,0.4h1.9c0.2,0.7,0.9,1.3,1.6,1.3s1.5-0.5,1.6-1.3h7.7
	c0.2,0,0.4-0.2,0.4-0.4s-0.2-0.4-0.4-0.4h-7.7c-0.2-0.7-0.9-1.3-1.6-1.3S113.7,3.5,113.5,4.3z M115.9,4.3c0.1,0.1,0.1,0.3,0.1,0.4
	c0,0.2-0.1,0.3-0.1,0.4c-0.1,0.3-0.4,0.5-0.8,0.5s-0.6-0.2-0.8-0.5c-0.1-0.1-0.1-0.3-0.1-0.4c0-0.2,0.1-0.3,0.1-0.4
	c0.1-0.3,0.4-0.5,0.8-0.5S115.7,4,115.9,4.3z"/>
<path class="st0" d="M119.3,14.9h-7.7c-0.2,0-0.4,0.2-0.4,0.4s0.2,0.4,0.4,0.4h7.7c0.2,0.7,0.9,1.3,1.6,1.3s1.5-0.5,1.6-1.3h1.9
	c0.2,0,0.4-0.2,0.4-0.4s-0.2-0.4-0.4-0.4h-1.9c-0.2-0.7-0.9-1.3-1.6-1.3S119.4,14.1,119.3,14.9z M121.6,14.9
	c0.1,0.1,0.1,0.3,0.1,0.4c0,0.2-0.1,0.3-0.1,0.4c-0.1,0.3-0.4,0.5-0.8,0.5s-0.6-0.2-0.8-0.5c-0.1-0.1-0.1-0.3-0.1-0.4
	c0-0.2,0.1-0.3,0.1-0.4c0.1-0.3,0.4-0.5,0.8-0.5S121.5,14.6,121.6,14.9z"/>
</svg>
