<?xml version="1.0" encoding="utf-8"?>
<!-- Generator: Adobe Illustrator 19.0.0, SVG Export Plug-In . SVG Version: 6.00 Build 0)  -->
<svg version="1.1" id="图层_1" xmlns="http://www.w3.org/2000/svg" xmlns:xlink="http://www.w3.org/1999/xlink" x="0px" y="0px"
	 viewBox="111 3 14 14" style="enable-background:new 111 3 14 14;" xml:space="preserve">
<style type="text/css">
	.st0{fill:#999999;}
</style>
<path class="st0" d="M118.5,14.4v-0.5c0-0.2-0.2-0.5-0.5-0.5c-0.2,0-0.5,0.2-0.5,0.5v0.5c-0.5,0.2-0.9,0.7-0.9,1.3
	c0,0.7,0.6,1.4,1.4,1.4c0.7,0,1.4-0.6,1.4-1.4C119.4,15.1,119,14.6,118.5,14.4z M118,16.1c-0.2,0-0.5-0.2-0.5-0.5
	c0-0.2,0.2-0.5,0.5-0.5c0.2,0,0.5,0.2,0.5,0.5C118.5,15.9,118.2,16.1,118,16.1z"/>
<path class="st0" d="M122.5,11.6c-0.4,0-0.8,0.1-1.1,0.4l-0.9-0.7c0.1-0.3,0.2-0.7,0.2-1c0-1.3-1-2.5-2.3-2.7v-1
	c0.8-0.2,1.4-0.9,1.4-1.7c0-1-0.8-1.8-1.8-1.8s-1.8,0.8-1.8,1.8c0,0.8,0.6,1.5,1.4,1.7v1c-1.3,0.2-2.3,1.3-2.3,2.7
	c0,0.4,0.1,0.7,0.2,1l-0.9,0.7c-0.3-0.2-0.7-0.4-1.1-0.4c-1,0-1.8,0.8-1.8,1.8s0.8,1.8,1.8,1.8s1.8-0.8,1.8-1.8
	c0-0.3-0.1-0.5-0.1-0.7L116,12c0.5,0.6,1.2,0.9,2,0.9c0.8,0,1.5-0.3,2-0.9l0.8,0.6c-0.1,0.2-0.1,0.5-0.1,0.7c0,1,0.8,1.8,1.8,1.8
	s1.8-0.8,1.8-1.8S123.5,11.6,122.5,11.6z M113.5,14.3c-0.5,0-0.9-0.4-0.9-0.9s0.4-0.9,0.9-0.9c0.5,0,0.9,0.4,0.9,0.9
	S114,14.3,113.5,14.3z M117.1,4.8c0-0.5,0.4-0.9,0.9-0.9c0.5,0,0.9,0.4,0.9,0.9s-0.4,0.9-0.9,0.9C117.5,5.7,117.1,5.3,117.1,4.8z
	 M118,12c-1,0-1.8-0.8-1.8-1.8s0.8-1.8,1.8-1.8s1.8,0.8,1.8,1.8S119,12,118,12z M122.5,14.3c-0.5,0-0.9-0.4-0.9-0.9s0.4-0.9,0.9-0.9
	s0.9,0.4,0.9,0.9S123,14.3,122.5,14.3z"/>
<path class="st0" d="M113,9.3c0.4,0,0.7-0.2,1-0.4l0.4,0.2c0.1,0,0.1,0,0.2,0c0.2,0,0.3-0.1,0.4-0.3c0.1-0.2,0-0.5-0.2-0.6l-0.4-0.2
	c0,0,0-0.1,0-0.1c0-0.7-0.6-1.4-1.4-1.4c-0.7,0-1.4,0.6-1.4,1.4S112.3,9.3,113,9.3z M113,7.5c0.2,0,0.5,0.2,0.5,0.5
	c0,0.2-0.2,0.5-0.5,0.5s-0.5-0.2-0.5-0.5C112.6,7.7,112.8,7.5,113,7.5z M121.4,9.1c0.1,0,0.1,0,0.2,0l0.4-0.2c0.2,0.3,0.6,0.4,1,0.4
	c0.7,0,1.4-0.6,1.4-1.4s-0.6-1.4-1.4-1.4s-1.4,0.6-1.4,1.4c0,0,0,0.1,0,0.1l-0.4,0.2c-0.2,0.1-0.3,0.4-0.2,0.6
	C121.1,9,121.2,9.1,121.4,9.1z M123,7.5c0.2,0,0.5,0.2,0.5,0.5c0,0.2-0.2,0.5-0.5,0.5s-0.5-0.2-0.5-0.5C122.5,7.7,122.7,7.5,123,7.5
	z"/>
</svg>
