<?xml version="1.0" encoding="utf-8"?>
<!-- Generator: Adobe Illustrator 17.0.0, SVG Export Plug-In . SVG Version: 6.00 Build 0)  -->
<!DOCTYPE svg PUBLIC "-//W3C//DTD SVG 1.1//EN" "http://www.w3.org/Graphics/SVG/1.1/DTD/svg11.dtd">
<svg version="1.1" id="图层_1" xmlns="http://www.w3.org/2000/svg" xmlns:xlink="http://www.w3.org/1999/xlink" x="0px" y="0px"
	 width="16px" height="16px" viewBox="0 0 16 16" enable-background="new 0 0 16 16" xml:space="preserve">
<g>
	<g>
		<g>
			<path d="M11.948,6.045h-0.023c-0.016,0.172-0.055,0.328-0.117,0.469l-0.586,1.758h1.5l-0.656-1.782
				C12.018,6.334,11.979,6.186,11.948,6.045z"/>
			<path d="M8,0C3.582,0,0,3.582,0,8c0,4.418,3.582,8,8,8c4.418,0,8-3.582,8-8C16,3.582,12.418,0,8,0z M6.262,10.288
				H5.067L3.028,7.053C2.934,6.897,2.84,6.741,2.746,6.584C2.762,6.803,2.77,7.092,2.77,7.452v2.836H1.668V5.131h1.266l1.969,3.165
				c0.016,0.031,0.039,0.07,0.07,0.117c0.109,0.172,0.18,0.305,0.211,0.398V8.788c-0.016-0.172-0.023-0.43-0.023-0.774V5.131h1.102
				V10.288z M7.804,10.827h-0.82l1.195-6.024h0.82L7.804,10.827z M13.307,10.288l-0.375-1.125h-1.969l-0.375,1.125H9.323
				l1.922-5.157h1.406l1.945,5.157H13.307z"/>
		</g>
	</g>
</g>
</svg>
