<?xml version="1.0" encoding="utf-8"?>
<!-- Generator: Adobe Illustrator 19.0.0, SVG Export Plug-In . SVG Version: 6.00 Build 0)  -->
<svg version="1.1" id="图层_1" xmlns="http://www.w3.org/2000/svg" xmlns:xlink="http://www.w3.org/1999/xlink" x="0px" y="0px"
	 viewBox="15 3 14 14" style="enable-background:new 15 3 14 14;" xml:space="preserve">
<style type="text/css">
	.st0{fill:#999999;}
</style>
<g>
	<path class="st0" d="M26.9,12.6c0,0.2-0.2,0.4-0.5,0.4c-0.3,0-0.5-0.2-0.5-0.4s0.2-0.4,0.5-0.4C26.7,12.1,26.9,12.3,26.9,12.6z"/>
	<path class="st0" d="M25.8,15.7v-0.9c1.3,0,2.3-1,2.3-2.2s-1-2.2-2.3-2.2V9.7v0.7h-7.6V9.5h6.7V4.7c0-0.2,0.2-0.4,0.5-0.4
		s0.5,0.2,0.5,0.4v4.7c1.8,0,3.2,1.4,3.2,3.1S27.6,15.7,25.8,15.7z"/>
	<path class="st0" d="M15.9,12.6c0,1.2,1,2.2,2.3,2.2v0.9c-1.8,0-3.2-1.4-3.2-3.1s1.4-3.1,3.2-3.1v0.9
		C16.9,10.4,15.9,11.4,15.9,12.6L15.9,12.6z"/>
	<path class="st0" d="M17.5,12.6c0-0.2,0.2-0.4,0.5-0.4h0.7v-0.7c0-0.2,0.2-0.4,0.5-0.4s0.5,0.2,0.5,0.4v0.7h0.7
		c0.3,0,0.5,0.2,0.5,0.4S20.5,13,20.2,13h-0.7v0.7c0,0.2-0.2,0.4-0.5,0.4c-0.3,0-0.5-0.2-0.5-0.4V13h-0.7
		C17.7,13,17.5,12.8,17.5,12.6L17.5,12.6z M24.2,12.6c0-0.2,0.2-0.4,0.5-0.4s0.5,0.2,0.5,0.4S24.9,13,24.6,13S24.2,12.8,24.2,12.6z
		 M25.8,15.7h-7.6v-0.9h7.6C25.8,14.8,25.8,15.7,25.8,15.7z"/>
	<path class="st0" d="M23.4,7.7v1.9c0,0.2-0.2,0.4-0.4,0.4c-0.2,0-0.4-0.2-0.4-0.4c0,0,0,0,0,0V7.7c0-0.2,0.2-0.4,0.4-0.4
		C23.2,7.2,23.4,7.4,23.4,7.7C23.4,7.7,23.4,7.7,23.4,7.7z"/>
</g>
</svg>
