<?xml version="1.0" encoding="utf-8"?>
<!-- Generator: Adobe Illustrator 17.0.0, SVG Export Plug-In . SVG Version: 6.00 Build 0)  -->
<!DOCTYPE svg PUBLIC "-//W3C//DTD SVG 1.1//EN" "http://www.w3.org/Graphics/SVG/1.1/DTD/svg11.dtd">
<svg version="1.1" id="图层_1" xmlns="http://www.w3.org/2000/svg" xmlns:xlink="http://www.w3.org/1999/xlink" x="0px" y="0px"
	 width="39.685px" height="39.685px" viewBox="0 0 39.685 39.685" enable-background="new 0 0 39.685 39.685" xml:space="preserve">
<g>
	<g>
		<path fill="#5CB85C" d="M19.844,0C8.886-0.002,0.002,8.88,0,19.838c0,0.002,0,0.004,0,0.006c0,10.958,8.883,19.841,19.841,19.841
			c0.001,0,0.002,0,0.003,0c10.958,0,19.841-8.883,19.841-19.841C39.662,8.881,30.779,0,19.844,0z M26.841,23.928l-5.994,6.032
			c0,0-0.001,0-0.001,0.001c-0.001,0.001-0.001,0.001-0.002,0.002c-0.001,0.001-0.001,0.003-0.002,0.004
			c-0.003,0.003-0.007,0.004-0.01,0.006c-0.128,0.125-0.279,0.226-0.446,0.296c-0.003,0.001-0.006,0.004-0.01,0.005
			c-0.011,0.004-0.022,0.004-0.033,0.008c-0.151,0.057-0.312,0.091-0.482,0.094c-0.006,0-0.013,0.002-0.019,0.002
			c-0.007,0-0.013-0.002-0.02-0.002c-0.169-0.002-0.329-0.036-0.478-0.093c-0.012-0.004-0.024-0.004-0.036-0.009
			c-0.004-0.002-0.007-0.004-0.011-0.006c-0.165-0.069-0.313-0.169-0.439-0.291c-0.005-0.004-0.011-0.006-0.015-0.01
			c-0.001-0.001-0.002-0.003-0.003-0.005c-0.001-0.001-0.001-0.001-0.002-0.001l-5.994-6.032c-0.552-0.555-0.549-1.453,0.006-2.004
			c0.555-0.552,1.453-0.549,2.004,0.006l3.572,3.595V9.118c0-0.783,0.635-1.417,1.417-1.417c0.783,0,1.417,0.635,1.417,1.417v16.406
			l3.571-3.594c0.551-0.555,1.449-0.558,2.004-0.006C27.39,22.475,27.393,23.373,26.841,23.928z"/>
	</g>
</g>
</svg>
