<?xml version="1.0" encoding="utf-8"?>
<!-- Generator: Adobe Illustrator 19.0.0, SVG Export Plug-In . SVG Version: 6.00 Build 0)  -->
<svg version="1.1" id="图层_1" xmlns="http://www.w3.org/2000/svg" xmlns:xlink="http://www.w3.org/1999/xlink" x="0px" y="0px"
	 viewBox="111.1 3 14 14" style="enable-background:new 111.1 3 14 14;" xml:space="preserve">
<style type="text/css">
	.st0{fill:#999999;}
</style>
<path class="st0" d="M118.4,7.3v2.4h4.7c0.2,0,0.4,0.1,0.4,0.4v2.7h1.1c0.2,0,0.4,0.1,0.4,0.4v3c0,0.2-0.1,0.4-0.4,0.4h-3
	c-0.3,0-0.4-0.1-0.4-0.4v-3c0-0.3,0.1-0.4,0.4-0.4h1.1v-2.3h-4.4v2.3h1c0.4,0,0.5,0.1,0.5,0.5V16c0,0.3-0.1,0.4-0.4,0.4h-2.9
	c-0.3,0-0.4-0.1-0.4-0.4v-2.9c0-0.3,0.1-0.5,0.5-0.5h1.1v-2.3h-4.4v2.3h1.2c0.2,0,0.3,0.1,0.3,0.4v3c0,0.2-0.1,0.4-0.4,0.4h-3
	c-0.2,0-0.4-0.1-0.4-0.4c0-0.3,0-0.6,0-0.9v-2c0-0.3,0.1-0.5,0.5-0.5h1.1v-2.6c0-0.4,0.1-0.5,0.5-0.5h4.6V7.3h-1.2
	c-0.2,0-0.4-0.1-0.4-0.3c0-1,0-2.1,0-3.1c0-0.2,0.2-0.3,0.4-0.3h3c0.2,0,0.4,0.1,0.4,0.3c0,1,0,2,0,3.1c0,0.2-0.1,0.3-0.4,0.3
	c-0.3,0-0.7,0-1,0C118.5,7.3,118.5,7.3,118.4,7.3z M116.9,6.6h2.3V4.2h-2.3C116.9,4.2,116.9,6.6,116.9,6.6z M114.1,13.4h-2.3v2.3
	h2.3V13.4z M119.2,13.4h-2.3v2.3h2.3V13.4z M122,13.4v2.3h2.3v-2.3H122z"/>
</svg>
