<?xml version="1.0" standalone="no"?><!DOCTYPE svg PUBLIC "-//W3C//DTD SVG 1.1//EN" "http://www.w3.org/Graphics/SVG/1.1/DTD/svg11.dtd"><svg t="1528789942425" class="icon" style="" viewBox="0 0 1024 1024" version="1.1" xmlns="http://www.w3.org/2000/svg" p-id="1782" xmlns:xlink="http://www.w3.org/1999/xlink" width="200" height="200"><defs><style type="text/css"></style></defs><path d="M814.46183 207.146249L538.462993 658.513218h240.101334c128.877922 0 233.628014-101.807674 233.628013-227.154694 0-113.577347-85.918615-207.734733-197.73051-224.212275z" fill="#008EE5" p-id="1783"></path><path d="M783.272196 204.203831c-25.893281-112.400379-130.054889-197.73051-255.990393-204.203831v623.792682L783.272196 204.203831z" fill="#34C8E6" p-id="1784"></path><path d="M499.623071 0c-125.935504 5.296353-230.097112 90.038-257.167361 201.261412l257.167361 421.942786V0z" fill="#008EE5" p-id="1785"></path><path d="M11.770115 431.358524c0 125.34702 104.750092 227.154694 233.628014 227.154694h243.632236l-275.998838-451.955453C99.454181 221.858341 11.770115 316.60421 11.770115 431.358524z" fill="#34C8E6" p-id="1786"></path><path d="M426.062613 759.143924l-53.552013-15.889059v26.481765l53.552013 17.066026v-27.658732z m91.803451 155.948171c4.707869-18.831477 4.707869-37.074471 4.70787-37.074471h15.300575v101.807673h29.424183V877.42914h56.494432s28.835699 4.707869 28.835699-22.950863v-39.428405s0-2.353935-0.588484-5.884837c-3.530902-14.123608-20.008445-12.358157-20.008444-12.358157H567.887176V775.032983h79.445294l7.650288-21.185412H567.887176v-21.773895h-31.778118v21.773895h-80.622262V775.032983h81.799229v21.773895h-60.025333c-1.765451 0-21.185412-1.765451-21.185412 21.185412-0.588484 25.893281 0 39.428405 0 39.428406s0 19.419961 21.773895 20.596928c19.419961-0.588484 19.419961 0 19.419961 0s2.353935 55.317464-48.25566 70.029556v21.773895s52.375046 0 68.852588-54.72898z m49.432628-100.630707h54.140497s6.47332-1.176967 6.47332 6.473321v34.132052s-0.588484 5.296353-4.707869 5.884837c-6.47332 0.588484-55.317464 0-55.317464 0l-0.588484-46.49021z m-80.033778 46.49021c-7.061804-0.588484-7.061804-6.47332-7.061804-6.473321v-32.955085c0-7.650288 7.650288-6.47332 7.650288-6.47332h49.432627v46.490209c0-0.588484-42.370824 0-50.021111-0.588483z m442.539714-107.104027l-231.862563-0.588484V775.032983h221.269857l10.592706-21.185412z m-319.546629 137.705177h-27.070248c8.238771 76.502876 75.325909 78.268327 75.325909 78.268327s0.588484-1.765451 0-20.596928c-41.78234-12.358157-48.25566-57.671399-48.255661-57.671399z m-127.112471 104.750092c-18.242994-2.942418-47.078693-10.592706-58.259882-28.247216-0.588484-26.481765 0-151.828785 0-151.828785h-55.317465v21.185412h27.658733v134.762759l-25.304798 30.60115 1.176967 0.588484v0.588484l19.419961 16.477542 23.539347-28.835699s32.955085 29.424183 121.227634 30.60115c30.60115 0.588484 92.391935-3.530902 136.52821-14.123608V986.887101s-111.811896 27.658732-190.668707 9.415739z m400.757374-87.684066l29.424183 81.210746s-82.976196 25.893281-174.779647 2.353934c-3.530902-3.530902-2.942418-3.530902-0.588484-11.769673s33.543569-112.400379 33.543569-112.400379h-31.189634l-34.720536 112.400379s-10.004222 24.12783 14.712091 32.366601c15.889059 3.530902 117.696732 28.247216 224.800759-9.415738-9.415739-27.658732-35.30902-94.74587-35.30902-94.74587h-25.893281z m-612.611492 45.313242v-23.539346c-42.959307-32.366601-42.959307-111.223412-42.959307-111.223412h-22.36238c0 125.935504 65.321686 134.762759 65.321687 134.762758z m403.699792-118.8737v20.596929h273.056419l7.061804-20.596929h-280.118223z m-562.590381-82.387712c-23.539346 2.353935-34.720536 7.650288-43.547791 18.242993v237.7474s18.831477 18.242994 61.790785 14.123608c17.066026-1.765451 33.543569-9.415739 36.485987-15.300576 1.176967-8.238771 0-233.03953 0-233.03953s-10.004222-24.716314-54.728981-21.773895z m30.601151 107.69251h-33.543569v15.300575h33.543569v120.050667s-21.185412 11.18119-48.255661 1.765451c0-27.658732-1.176967-217.738955-1.176967-217.738955s21.185412-16.477543 49.432628 0.588484c1.176967 53.552013 0 80.033778 0 80.033778z m182.429935-130.054889H299.538626v46.490209l-110.634929 1.176967v23.539347h110.634929v187.726288s-21.185412 17.65451-87.684066 4.707869c-0.588484 18.242994 0 21.185412 0 21.185412s78.856811 19.419961 113.577347-14.712091c1.176967-39.428405 0-198.907478 0-198.907478h21.185412l7.650287-24.12783h-28.835699v-47.078693z" fill="#FFFFFF" p-id="1787"></path></svg>