<?xml version="1.0" encoding="utf-8"?>
<!-- Generator: Adobe Illustrator 19.0.0, SVG Export Plug-In . SVG Version: 6.00 Build 0)  -->
<svg version="1.1" id="图层_1" xmlns="http://www.w3.org/2000/svg" xmlns:xlink="http://www.w3.org/1999/xlink" x="0px" y="0px"
	 viewBox="111 3 14 14" style="enable-background:new 111 3 14 14;" xml:space="preserve">
<style type="text/css">
	.st0{fill:#999999;}
</style>
<path class="st0" d="M124.8,10.4l-6.9,3.5c-0.1,0-0.1,0.1-0.2,0.1c-0.1,0-0.1,0-0.2-0.1l-6.2-3.5c-0.2-0.1-0.3-0.4-0.2-0.6
	c0-0.1,0.1-0.1,0.2-0.2l1-0.6h1.2l-0.6,0.6l4.9,3l5.5-3l-0.6-0.6h1.2l1,0.6c0.1,0.1,0.2,0.2,0.2,0.4C125,10.2,124.9,10.4,124.8,10.4
	z M124.8,7.1l-6.9,3.7c-0.1,0.1-0.3,0.1-0.4,0l-6.2-3.7C111.1,7,111,6.9,111,6.7c0-0.2,0.1-0.3,0.2-0.4l6.3-3.3
	c0.1-0.1,0.3-0.1,0.4,0l6.8,3.3c0.2,0.1,0.3,0.4,0.2,0.6C124.9,7,124.8,7.1,124.8,7.1z M117.7,4.2l-4.9,2.4l4.9,3l5.5-3
	C123.2,6.6,117.7,4.2,117.7,4.2z M111.2,12.7l1-0.6h1.2l-0.6,0.6l4.9,3l5.5-3l-0.6-0.6h1.2l1,0.6c0.1,0.1,0.2,0.2,0.2,0.4
	c0,0.2-0.1,0.3-0.2,0.4l-6.9,3.5c-0.1,0-0.1,0.1-0.2,0.1c-0.1,0-0.1,0-0.2-0.1l-6.2-3.5c-0.1-0.1-0.2-0.2-0.2-0.4
	C111,12.9,111.1,12.8,111.2,12.7z"/>
</svg>
