<?xml version="1.0" standalone="no"?><!DOCTYPE svg PUBLIC "-//W3C//DTD SVG 1.1//EN" "http://www.w3.org/Graphics/SVG/1.1/DTD/svg11.dtd"><svg t="1515997711799" class="icon" style="" viewBox="0 0 1024 1024" version="1.1" xmlns="http://www.w3.org/2000/svg" p-id="7221" xmlns:xlink="http://www.w3.org/1999/xlink" width="200" height="200"><defs><style type="text/css"></style></defs><path d="M829.088 308.032L721.216 416A230.048 230.048 0 0 1 416 721.216l-81.664 81.664A426.688 426.688 0 0 0 512 844.8c282.752 0 512-332.8 512-332.8a1065.792 1065.792 0 0 0-194.912-203.968zM873.376 105.376l-138.56 138.56A454.912 454.912 0 0 0 512 179.2C229.216 179.2 0 512 0 512a1044.896 1044.896 0 0 0 233.6 232.992l-128.224 128.384 45.248 45.248 768-768zM281.6 512a230.08 230.08 0 0 1 368.928-183.776l-66.848 66.848a136.96 136.96 0 0 0-188.64 188.64l-66.848 66.848A229.088 229.088 0 0 1 281.6 512z" fill="" p-id="7222"></path><path d="M489.76 647.36a135.232 135.232 0 0 0 157.6-157.6z" fill="" p-id="7223"></path></svg>