<?xml version="1.0" encoding="utf-8"?>
<!-- Generator: Adobe Illustrator 19.0.0, SVG Export Plug-In . SVG Version: 6.00 Build 0)  -->
<svg version="1.1" id="图层_1" xmlns="http://www.w3.org/2000/svg" xmlns:xlink="http://www.w3.org/1999/xlink" x="0px" y="0px"
	 viewBox="69.7 -40 100 100" style="enable-background:new 69.7 -40 100 100;" xml:space="preserve">
<style type="text/css">
	.st0{fill:#D1A31A;}
	.st1{fill:#FFDC76;}
</style>
<path d="M163.1,40.1c-1.3-0.3-3.1-0.2-3.9-1c-4.7-4.8-9.2-9.8-13-13.9l-1.9-2c2.8-1.9,6.7-5.4,10-11h6V11h-5.4c0.4-0.6,0.7-1.3,1-2
	h4.4V7.9h-3.9c3.4-7.8,5.1-18.6,1.8-33.4c0,0-6,2-9.7,8.9c0,0-15.2,0.2-18.3,1.1c0,0-2.2-6.2-10.4-8.4c0,0-3.7,11.3,0.4,24.3
	c-5.8,2.6-11.4,4.8-16.6,7.7c-5.8,3.3-11,7.5-17.1,11.7c-1.5-3.8-3.5-7.5-4.4-11.5C80.4,0.2,86.3-6.6,94.6-6.5c1.9,0,4-0.3,4.5,2.5
	c0.1,0.4,0.8,0.8,1.4,1c3.8,1.3,7.6,1.2,11.8-0.2c-2.8-3.5-6.1-5.4-10-6.1c-0.7-0.1-1.5,0.3-2.2,0.5c-1.1,0.2-2.3,0.8-3.4,0.7
	C87.8-9.2,81.1-4.1,80.2,4.4c-0.5,4.8,1.2,9.1,3.6,13.1c0.8,1.3,1.6,2.6,2.4,3.9C79.9,28.8,73.9,35.9,69.7,45h11.4
	c-0.6-7.4,2.4-12.5,8.9-15.6c1.7-0.8,3-0.7,4.5,0.7c2.4,2.3,5.3,4.1,7.6,6.5c3.6,3.6,7.9,3.2,12.5,2.8c-0.1-3.2-2.2-3.7-4.6-3.8
	c-0.9,0-2.2-0.1-2.5-0.6c-1-2-1.7-4.1-2.7-7c4.3,0.7,7.6,1.2,10.8,1.8c14.4,3,27.7,8.9,40.5,15.7c4.6,2.4,9.1,1.2,13.6,1.5
	C169.7,43.1,167.5,41,163.1,40.1L163.1,40.1z M120.6-21c1.5,7.6,6.7,8.6,6.7,8.6c2.9-1.7,10-2,10-2l2.3,5.8l2.6-6.2
	c3.9-0.2,10.7,0.9,10.7,0.9c2.5-1.9,4.8-8.7,4.8-8.7c1.3,8,1.1,14.7,0,20.3l-2.7,1.5l2.2,0.5c-0.3,1.1-0.6,2.2-1,3.3l-2.1,1.2h1.7
	c-0.5,1.2-1,2.5-1.6,3.6h-3.9V9h3.4c-0.4,0.7-0.7,1.3-1.1,2h-2.2v1.1h1.6c-5.1,7.7-11.2,10.6-11.2,10.6c-5-3.2-8.9-6.8-11.8-10.6
	h1.8V11H128c-0.5-0.6-0.9-1.3-1.3-2h3.9V7.9h-4.5c-0.9-1.5-1.7-3.1-2.4-4.8l1.8-0.3l-2.4-1.1c-0.4-1-0.8-2.1-1.1-3.2h3.5l-4.2-2.8
	C119.2-13.6,120.6-21,120.6-21z M78.7,41.3c-0.5,3-3.1,1.2-5.7,1.7c4.2-7.4,9-13.4,14.4-19.4l3,3.2C83.6,29.7,79.9,34.4,78.7,41.3z
	 M157,43.5c-10.7-5.6-21.7-10.8-33.4-13.9c-5.1-1.4-10.3-2.4-15.6-3.2c-2.2-0.3-2.6-1.3-2.3-3.1c0.2-1.3,0.6-2.5,0.6-3.8
	c0-0.7-0.5-1.4-0.8-2.1c-0.6,0.5-1.4,1-1.6,1.7c-0.4,1.3-0.5,2.7-0.8,4c-0.2,0.8-0.4,2.1-0.8,2.1c-2.9,0.3-5.9,0.9-8.7,0.5
	c-1.4-0.2-2.6-2.2-3.7-3.5c-0.2-0.2-0.1-1.1,0.1-1.3c1.8-1.7,3.6-3.3,5.6-4.8c0.4-0.3,1.5,0,2.1,0.2c0.9,0.3,1.6,0.9,2.6,1.5
	c0.8-2.3-2.1-5.6,1.7-6.1c2.1-0.3,4.4,1,7.1,1.7l-2.2-5c4.4-0.5,6.3,4,10.4,4.4c-0.6-2-1-3.8-1.7-5.4c-0.8-2-0.2-3,1.8-3.4
	c0.4-0.1,0.7-0.3,1.1-0.4c1-0.8,1.8-1.1,2.6-1.1c0.7,1.8,1.5,3.6,2.5,5.3h-3.2V9h3.8c0.4,0.7,0.8,1.3,1.3,2h-5.1v1.1h5.8
	c3.4,4.6,8.1,9.1,14.7,13c0,0,0.5-0.2,1.3-0.7c0.3,0.4,1.3,1.6,2.1,2.4c-0.4,0.8-0.9,2.1-1.5,3.5c2,0.9,4.2-2.7,6,1.2l-3.5,2.1
	c0.2,0.2,0.3,0.5,0.5,0.7c0.3,0.1,0.7,0.3,1,0.1c3.7-1.7,6,0.1,8.2,2.9c2.1,2.7,4.4,5,8.2,4.9c1.1,0,2.2,1,3.2,1.9
	C163.2,44.8,160.1,45.2,157,43.5L157,43.5z"/>
<path class="st0" d="M155,37.4c-2.1-2.8-4.5-4.6-8.2-2.9c-0.3,0.1-0.7-0.1-1-0.1l-0.5-0.7c1.2-0.7,2.5-1.5,3.5-2.1
	c-1.8-3.9-4.1-0.4-6-1.2c0.6-1.4,1.2-2.7,1.5-3.5c-0.8-0.8-1.8-2-2.1-2.4c-0.8,0.5-1.3,0.7-1.3,0.7c-6.6-3.9-11.4-8.4-14.7-13h-5.8
	V11h5.1c-0.4-0.6-0.9-1.3-1.3-2h-3.8V7.9h3.2c-1-1.7-1.8-3.5-2.5-5.3c-0.8,0-1.6,0.3-2.6,1.1c-0.3,0.2-0.7,0.3-1.1,0.4
	c-2,0.4-2.6,1.4-1.8,3.4c0.7,1.7,1.1,3.4,1.7,5.4c-4.1-0.5-6-5-10.4-4.4l2.2,5c-2.7-0.7-5-2-7.1-1.7c-3.7,0.5-0.9,3.8-1.7,6.1
	c-1-0.6-1.8-1.2-2.6-1.5c-0.7-0.3-1.7-0.5-2.1-0.2c-2,1.5-3.8,3.1-5.6,4.8c-0.3,0.2-0.4,1.1-0.1,1.3c1.2,1.3,2.3,3.3,3.7,3.5
	c2.8,0.4,5.8-0.1,8.7-0.5c0.3,0,0.6-1.4,0.8-2.1c0.3-1.3,0.4-2.7,0.8-4c0.2-0.7,1-1.1,1.6-1.7c0.3,0.7,0.8,1.4,0.8,2.1
	c0,1.3-0.4,2.5-0.6,3.8c-0.3,1.8,0.1,2.8,2.3,3.1c5.2,0.8,10.5,1.8,15.6,3.2c11.7,3.2,22.7,8.3,33.4,13.9c3.1,1.6,6.2,1.2,9.5,0.6
	c-1-0.9-2.1-1.9-3.2-1.9C159.4,42.3,157.1,40.1,155,37.4L155,37.4z M73,43c2.5-0.5,5.1,1.2,5.7-1.7c1.2-6.8,4.9-11.6,11.7-14.5
	l-3-3.2C82,29.6,77.2,35.6,73,43z"/>
<path class="st1" d="M140.1,9.8l4-2.5l-8.8-0.2C135.4,7.1,140.1,9.8,140.1,9.8z M145.4,6.2c-0.4-1.6-0.7-4.8-0.7-4.8
	c0-0.2,0-0.3,0.1-0.5h-9c-0.6,2.9-1.4,5.3-1.4,5.3S145.4,6.2,145.4,6.2z"/>
<path class="st1" d="M125.5-1.5H122c0.3,1.1,0.7,2.1,1.1,3.2l2.4,1.1l-1.8,0.3c0.7,1.7,1.5,3.3,2.4,4.8h4.5V9h-3.9
	c0.4,0.7,0.9,1.3,1.3,2h2.6v1.1h-1.8c2.9,3.8,6.7,7.4,11.8,10.6c0,0,6.1-3,11.2-10.6h-1.6V11h2.2c0.4-0.6,0.8-1.3,1.1-2h-3.4V7.9
	h3.9c0.6-1.2,1.1-2.4,1.6-3.6h-1.7l2.1-1.2c0.4-1.1,0.7-2.2,1-3.3l-2.2-0.5l2.7-1.5c1.1-5.6,1.3-12.3,0-20.3c0,0-2.3,6.8-4.8,8.7
	c0,0-6.7-1.1-10.7-0.9l-2.6,6.2l-2.3-5.8c0,0-7.1,0.3-10,2c0,0-5.2-1-6.7-8.6c0,0-1.5,7.4,0.6,16.7C121.3-4.3,125.5-1.5,125.5-1.5z
	 M131.2-8.2c5.5-2.2,5.6,3.1,4.8,7.9h9.1c1.6-5.2,7.4-5,7.4-5v1c-3.8,0.2-5.5,2-6.1,3.9h4.3v1.1h-4.6c-0.4,2.6,0.7,5.3,0.7,5.3h1.7
	l-7.2,4.3l3.9,2.3l-0.5,0.9l-4.6-2.5l-4.5,2.7L135,13l4-2.4l-6.2-3.4V6.9l0-0.8c0.9-0.8,1.5-3.1,1.9-5.3h-5v-1.1h5.2
	c0.3-1.6,0.4-2.8,0.4-2.8c0-0.3,0-0.6,0-0.9c0-4.7-2.9-3.5-2.9-3.5c-1.8,0.7-3.7,3-3.7,3L127.8-5C127.7-5.5,131.2-8.2,131.2-8.2z"/>
<path d="M132.3-7.3c0,0,2.9-1.3,2.9,3.5c0,0.3,0,0.6,0,0.9c0,0-0.1,1.2-0.4,2.8h-5.2v1.1h5c-0.4,2.2-1.1,4.5-1.9,5.3l0,0.8v0.1
	l6.2,3.4l-4,2.4l0.6,0.9l4.5-2.7l4.6,2.5l0.5-0.9l-3.9-2.3l7.2-4.3h-1.7c0,0-1-2.7-0.7-5.3h4.6v-1.1h-4.3c0.6-2,2.3-3.7,6.1-3.9v-1
	c0,0-5.8-0.2-7.4,5H136c0.8-4.8,0.7-10.2-4.8-7.9c0,0-3.5,2.6-3.4,3.2l0.8,0.7C128.6-4.3,130.5-6.7,132.3-7.3z M140.1,9.8l-4.7-2.7
	l8.8,0.2C144.1,7.3,140.1,9.8,140.1,9.8z M144.8,0.9c0,0.2-0.1,0.3-0.1,0.5c0,0,0.3,3.2,0.7,4.8h-11c0,0,0.8-2.4,1.4-5.3
	C135.8,0.9,144.8,0.9,144.8,0.9z"/>
</svg>
