<?xml version="1.0" encoding="utf-8"?>
<!-- Generator: Adobe Illustrator 19.0.0, SVG Export Plug-In . SVG Version: 6.00 Build 0)  -->
<svg version="1.1" id="图层_1" xmlns="http://www.w3.org/2000/svg" xmlns:xlink="http://www.w3.org/1999/xlink" x="0px" y="0px"
	 viewBox="-2 4 14 14" style="enable-background:new -2 4 14 14;" xml:space="preserve">
<style type="text/css">
	.st0{fill:#999999;}
</style>
<path class="st0" d="M5,4.9c3.4,0,6.1,2.7,6.1,6.1S8.4,17.1,5,17.1s-6.1-2.7-6.1-6.1S1.7,4.9,5,4.9 M5,4c-3.9,0-7,3.1-7,7s3.1,7,7,7
	s7-3.1,7-7S8.9,4,5,4z"/>
<path class="st0" d="M1.6,14.8l2.9-8h1.1l3,8H7.4l-0.9-2.4H3.4l-0.8,2.4C2.6,14.8,1.6,14.8,1.6,14.8z M3.7,11.5h2.5L5.5,9.3
	C5.2,8.7,5,8.1,4.9,7.7c-0.1,0.5-0.2,1-0.4,1.5L3.7,11.5z"/>
</svg>
