<?xml version="1.0" encoding="utf-8"?>
<!-- Generator: Adobe Illustrator 19.0.0, SVG Export Plug-In . SVG Version: 6.00 Build 0)  -->
<svg version="1.1" id="图层_1" xmlns="http://www.w3.org/2000/svg" xmlns:xlink="http://www.w3.org/1999/xlink" x="0px" y="0px"
	 viewBox="15 3 14 14" style="enable-background:new 15 3 14 14;" xml:space="preserve">
<style type="text/css">
	.st0{fill:#999999;}
</style>
<path class="st0" d="M27.1,4.6H16.9c-1,0-1.9,0.8-1.9,1.9v7.9c0,1,0.8,1.9,1.9,1.9h10.3c1,0,1.9-0.8,1.9-1.9V6.5
	C29,5.5,28.2,4.6,27.1,4.6z M28.1,14.4c0,0.5-0.4,1-0.9,1H16.9c-0.5,0-0.9-0.4-0.9-1V6.5c0-0.5,0.4-1,0.9-1h10.3
	c0.5,0,0.9,0.4,0.9,1L28.1,14.4z"/>
<path class="st0" d="M19.4,3.7h0.9v2.8h-0.9C19.4,6.5,19.4,3.7,19.4,3.7z"/>
<path class="st0" d="M23.6,3.7h0.9v2.8h-0.9C23.6,6.5,23.6,3.7,23.6,3.7z"/>
<path class="st0" d="M15.9,8.4h12.1v0.9H15.9V8.4z M17.8,10.2h1.9v0.9h-1.9V10.2z M21.1,10.2H23v0.9h-1.9V10.2z M24.3,10.2h1.9v0.9
	h-1.9V10.2z M17.8,12.6h1.9v0.9h-1.9V12.6z M21.1,12.6H23v0.9h-1.9V12.6z M24.3,12.6h1.9v0.9h-1.9V12.6z"/>
</svg>
