<?xml version="1.0" encoding="utf-8"?>
<!-- Generator: Adobe Illustrator 19.0.0, SVG Export Plug-In . SVG Version: 6.00 Build 0)  -->
<svg version="1.1" id="图层_1" xmlns="http://www.w3.org/2000/svg" xmlns:xlink="http://www.w3.org/1999/xlink" x="0px" y="0px"
	 viewBox="15 3 14 14" style="enable-background:new 15 3 14 14;" xml:space="preserve">
<style type="text/css">
	.st0{fill:#999999;}
</style>
<path class="st0" d="M22,4c-3.3,0-6,2.7-6,6s2.7,6,6,6s6-2.7,6-6S25.3,4,22,4z M22,15c-2.8,0-5-2.2-5-5s2.2-5,5-5s5,2.2,5,5
	S24.8,15,22,15z"/>
<path class="st0" d="M22,6c-0.3,0-0.5-0.2-0.5-0.5v-2C21.5,3.2,21.7,3,22,3c0.3,0,0.5,0.2,0.5,0.5v2C22.5,5.8,22.3,6,22,6z M22,17
	c-0.3,0-0.5-0.2-0.5-0.5v-2c0-0.3,0.2-0.5,0.5-0.5c0.3,0,0.5,0.2,0.5,0.5v2C22.5,16.8,22.3,17,22,17z M17.5,10.5h-2
	c-0.3,0-0.5-0.2-0.5-0.5c0-0.3,0.2-0.5,0.5-0.5h2c0.3,0,0.5,0.2,0.5,0.5C18,10.3,17.8,10.5,17.5,10.5z M28.5,10.5h-2
	c-0.3,0-0.5-0.2-0.5-0.5c0-0.3,0.2-0.5,0.5-0.5h2c0.3,0,0.5,0.2,0.5,0.5C29,10.3,28.8,10.5,28.5,10.5z M22,8c-1.1,0-2,0.9-2,2
	s0.9,2,2,2c1.1,0,2-0.9,2-2S23.1,8,22,8z M22,11c-0.6,0-1-0.4-1-1c0-0.6,0.4-1,1-1c0.6,0,1,0.4,1,1C23,10.6,22.6,11,22,11z"/>
</svg>
