<?xml version="1.0" encoding="utf-8"?>
<!-- Generator: Adobe Illustrator 19.0.0, SVG Export Plug-In . SVG Version: 6.00 Build 0)  -->
<svg version="1.1" id="图层_1" xmlns="http://www.w3.org/2000/svg" xmlns:xlink="http://www.w3.org/1999/xlink" x="0px" y="0px"
	 viewBox="111 3 14 14" style="enable-background:new 111 3 14 14;" xml:space="preserve">
<style type="text/css">
	.st0{fill:#999999;}
</style>
<path class="st0" d="M122.6,12.3c-0.5,1-1.2,1.8-2.1,2.3c-0.1,0.1-0.2,0.1-0.4,0.2c-0.1,0-0.1,0-0.2,0.1c-0.1,0-0.2,0.1-0.3,0.1
	c-0.1,0-0.1,0-0.2,0.1c-0.1,0-0.2,0.1-0.3,0.1c-0.1,0-0.1,0-0.1,0c-0.1,0-0.2,0-0.4,0.1c0,0-0.1,0-0.1,0c-0.1,0-0.3,0-0.4,0
	c0,0,0,0,0,0c-0.5,0-1,0-1.4-0.2c0,0,0,0,0,0c-0.1,0-0.3-0.1-0.4-0.1c0,0-0.1,0-0.1,0c-1-0.4-1.9-1.2-2.5-2.2l1.2-0.7l-3.5-1.7
	l-0.3,3.8l1.2-0.7c0.7,1.2,1.7,2.1,2.9,2.7c0,0,0,0,0,0c0.1,0.1,0.2,0.1,0.4,0.2c0,0,0.1,0,0.1,0.1c0.2,0.1,0.4,0.1,0.5,0.2
	c0,0,0,0,0.1,0c0.6,0.2,1.2,0.2,1.9,0.2c0,0,0,0,0.1,0c0.2,0,0.4,0,0.5,0c0,0,0.1,0,0.1,0c0.2,0,0.3,0,0.5-0.1c0.1,0,0.1,0,0.2,0
	c0.1,0,0.3-0.1,0.4-0.1c0.1,0,0.2,0,0.3-0.1c0,0,0.1,0,0.1,0c0.1,0,0.2-0.1,0.3-0.1c0,0,0.1,0,0.1,0c0.2-0.1,0.4-0.2,0.6-0.3
	c1.2-0.7,2.1-1.7,2.7-3c0.2-0.4,0-0.9-0.4-1.1C123.3,11.7,122.8,11.9,122.6,12.3 M123.8,6.8c-0.7-1.2-1.7-2.1-2.9-2.7c0,0,0,0-0.1,0
	c-0.1-0.1-0.3-0.1-0.4-0.2c0,0,0,0-0.1,0c-1-0.4-2.1-0.5-3.1-0.4c0,0-0.1,0-0.1,0c-0.2,0-0.3,0.1-0.5,0.1c-0.1,0-0.1,0-0.2,0
	c-0.1,0-0.3,0.1-0.4,0.1c-0.1,0-0.2,0-0.2,0.1c0,0-0.1,0-0.1,0c-0.1,0-0.2,0.1-0.3,0.1c-0.1,0-0.1,0.1-0.2,0.1
	c-0.2,0.1-0.3,0.2-0.5,0.2c0,0-0.1,0-0.1,0c0,0,0,0,0,0C113.5,5,112.5,6,112,7.3c-0.2,0.4,0,0.9,0.4,1.1c0.4,0.2,0.9,0,1.1-0.4
	c0.5-1,1.2-1.7,2.1-2.3c0.1-0.1,0.3-0.1,0.4-0.2c0,0,0.1,0,0.1-0.1c0.1,0,0.2-0.1,0.3-0.1c0,0,0.1,0,0.1,0c0.1,0,0.2-0.1,0.3-0.1
	c0,0,0.1,0,0.1,0c0.1,0,0.3-0.1,0.4-0.1c0,0,0,0,0,0c0.8-0.1,1.6,0,2.4,0.3c0,0,0,0,0,0c1.1,0.4,2,1.2,2.6,2.2l-1.2,0.7l3.5,1.7
	l0.3-3.8L123.8,6.8z"/>
</svg>
