<?xml version="1.0" encoding="utf-8"?>
<!-- Generator: Adobe Illustrator 19.0.0, SVG Export Plug-In . SVG Version: 6.00 Build 0)  -->
<svg version="1.1" id="图层_1" xmlns="http://www.w3.org/2000/svg" xmlns:xlink="http://www.w3.org/1999/xlink" x="0px" y="0px"
	 viewBox="15 3 14 14" style="enable-background:new 15 3 14 14;" xml:space="preserve">
<style type="text/css">
	.st0{fill:#999999;}
</style>
<path class="st0" d="M28.4,13.2c-0.3-0.3-0.7-0.5-1.1-0.6v-1.7c0-0.8-0.6-1.4-1.4-1.4h-3.4V7.5c0.4-0.1,0.8-0.3,1-0.6
	c0.4-0.4,0.7-1,0.7-1.6S24,4.1,23.6,3.7C23.1,3.3,22.6,3,22,3s-1.1,0.2-1.6,0.7c-0.4,0.4-0.7,1-0.7,1.6s0.2,1.1,0.7,1.6
	c0.3,0.3,0.7,0.5,1,0.6v2.1h-3.1c-0.8,0-1.4,0.6-1.4,1.4v1.7c-0.5,0.1-0.9,0.3-1.3,0.6c-0.4,0.4-0.7,1-0.7,1.6
	c0,0.6,0.2,1.1,0.6,1.5c0.4,0.4,1,0.6,1.5,0.6s1.1-0.2,1.5-0.6c0.4-0.4,0.6-1,0.6-1.5c0-0.6-0.2-1.1-0.6-1.5
	c-0.2-0.2-0.5-0.4-0.8-0.5v-1.8c0-0.2,0.1-0.4,0.4-0.4h3.2v2.1c-0.4,0.1-0.7,0.3-1,0.6c-0.4,0.4-0.6,1-0.6,1.5
	c0,0.6,0.2,1.1,0.6,1.5c0.4,0.4,1,0.6,1.5,0.6s1.1-0.2,1.5-0.6c0.4-0.4,0.6-1,0.6-1.5c0-0.6-0.2-1.1-0.6-1.5
	c-0.3-0.3-0.7-0.5-1.1-0.6v-2h3.4c0.2,0,0.4,0.1,0.4,0.4v1.7c-0.4,0.1-0.7,0.3-1,0.6c-0.4,0.4-0.6,1-0.6,1.5c0,0.6,0.2,1.1,0.6,1.5
	c0.4,0.4,1,0.6,1.5,0.6s1.1-0.2,1.5-0.6c0.4-0.4,0.6-1,0.6-1.5C29.1,14.2,28.9,13.6,28.4,13.2z M18.4,14.8c0,0.7-0.5,1.2-1.2,1.2
	c-0.7,0-1.2-0.5-1.2-1.2c0-0.7,0.5-1.2,1.2-1.2C17.8,13.6,18.4,14.1,18.4,14.8z M20.8,5.2c0-0.7,0.5-1.2,1.2-1.2s1.2,0.5,1.2,1.2
	S22.7,6.4,22,6.4C21.3,6.5,20.8,5.9,20.8,5.2z M23.2,14.8c0,0.7-0.5,1.2-1.2,1.2c-0.7,0-1.2-0.5-1.2-1.2c0-0.7,0.5-1.2,1.2-1.2
	C22.7,13.6,23.2,14.1,23.2,14.8z M26.9,16c-0.7,0-1.2-0.5-1.2-1.2s0.5-1.2,1.2-1.2s1.2,0.5,1.2,1.2S27.5,16,26.9,16z"/>
</svg>
