<?xml version="1.0" encoding="utf-8"?>
<!-- Generator: Adobe Illustrator 19.0.0, SVG Export Plug-In . SVG Version: 6.00 Build 0)  -->
<svg version="1.1" id="图层_1" xmlns="http://www.w3.org/2000/svg" xmlns:xlink="http://www.w3.org/1999/xlink" x="0px" y="0px"
	 viewBox="95.9 -8 48 36" style="enable-background:new 95.9 -8 48 36;" xml:space="preserve">
<style type="text/css">
	.st0{fill:#2DB7F5;}
</style>
<path class="st0" d="M143.9,18.2H133c0,0-0.3-1.2-1-2.3c-1-1.6-3.1-3.5-5.6-4c1.6-2.9,3.6-4.6,7.4-4.6c6.7,0,9.6,3,9.9,8.7h0
	L143.9,18.2L143.9,18.2z"/>
<path class="st0" d="M95.9,18.2v-2.2h0c0.3-5.8,3.2-8.7,9.9-8.7c3.8,0,5.8,1.7,7.4,4.6c-2.5,0.6-4.5,2.4-5.6,4c-0.7,1.1-1,2.3-1,2.3
	H95.9L95.9,18.2z"/>
<path class="st0" d="M133.9,7c-1.6,0-3-0.5-4.2-1.4c0.8-1.5,1.2-3.1,1.2-4.9c0-2.4-0.8-4.6-2.1-6.3c1.3-1.4,3.1-2.2,5.1-2.2
	c4,0,7.2,3.3,7.2,7.4S137.9,7,133.9,7L133.9,7z"/>
<circle class="st0" cx="119.9" cy="0.8" r="8.7"/>
<path class="st0" d="M110.1,5.5c-1.2,0.9-2.6,1.4-4.2,1.4c-4,0-7.2-3.3-7.2-7.4c0-4.1,3.2-7.4,7.2-7.4c2,0,3.8,0.9,5.1,2.2
	c-1.3,1.7-2.1,4-2.1,6.3C108.9,2.4,109.3,4.1,110.1,5.5L110.1,5.5z"/>
<path class="st0" d="M119.8,11.5c10,0,13.9,7.3,13.9,15.4l-0.7,0v0h-26.7v-0.1C106.3,18.6,109.8,11.5,119.8,11.5L119.8,11.5z"/>
</svg>
