<?xml version="1.0" encoding="utf-8"?>
<!-- Generator: Adobe Illustrator 19.0.0, SVG Export Plug-In . SVG Version: 6.00 Build 0)  -->
<svg version="1.1" id="图层_1" xmlns="http://www.w3.org/2000/svg" xmlns:xlink="http://www.w3.org/1999/xlink" x="0px" y="0px"
	 viewBox="0 0 30 30" style="enable-background:new 0 0 30 30;" xml:space="preserve">
<style type="text/css">
	.st0{fill:#CCCCCC;}
</style>
<g id="XMLID_10_">
	<g id="XMLID_65_">
		<path id="XMLID_66_" class="st0" d="M15,0C6.7,0,0,6.7,0,15c0,8.3,6.7,15,15,15c8.3,0,15-6.7,15-15C30,6.7,23.3,0,15,0z
			 M20.9,11.9v2.4h0v1.5h0h-1h-3.5v0.9h-2.8v-0.9h-3.5v2.3c1.1,0.2,2,1.2,2,2.4c0,1.4-1.1,2.5-2.5,2.5c-1.4,0-2.5-1.1-2.5-2.5
			c0-1.2,0.9-2.2,2-2.4v-3.8h0h1h3.5v-0.9h2.8v0.9h3.5v-2.4c-1.1-0.2-2-1.2-2-2.4c0-1.4,1.1-2.5,2.5-2.5c1.4,0,2.5,1.1,2.5,2.5
			C22.9,10.7,22,11.7,20.9,11.9z"/>
	</g>
</g>
</svg>
