<?xml version="1.0" encoding="utf-8"?>
<!-- Generator: Adobe Illustrator 17.0.0, SVG Export Plug-In . SVG Version: 6.00 Build 0)  -->
<!DOCTYPE svg PUBLIC "-//W3C//DTD SVG 1.1//EN" "http://www.w3.org/Graphics/SVG/1.1/DTD/svg11.dtd">
<svg version="1.1" id="图层_1" xmlns="http://www.w3.org/2000/svg" xmlns:xlink="http://www.w3.org/1999/xlink" x="0px" y="0px"
	 width="70px" height="70px" viewBox="0 0 70 70" enable-background="new 0 0 70 70" xml:space="preserve">
<rect x="2" y="50.51" opacity="0.2" fill="#999999" width="66" height="4"/>
<g>
	<path fill="#999999" d="M69,6.51H1c-0.552,0-1,0.43-1,0.962v48.077c0,0.531,0.448,0.962,1,0.962h68c0.552,0,1-0.43,1-0.962V7.472
		C70,6.941,69.552,6.51,69,6.51z M68,48.51H22v2h46v3.115c0,0.489-0.422,0.885-0.943,0.885H2.943C2.422,54.51,2,54.114,2,53.625
		V50.51h10v-2H2V9.395C2,8.906,2.422,8.51,2.943,8.51h64.114C67.578,8.51,68,8.906,68,9.395V48.51z"/>
	<rect x="14" y="48.51" fill="#999999" width="6" height="2"/>
</g>
<g>
	<rect x="18.958" y="16.51" fill="#999999" width="6" height="2"/>
	<path fill="#999999" d="M5,11.51v34h60v-34H5z M7,43.51v-25h9.958v-2H7v-3h56v3H26.958v2H63v25H7z"/>
</g>
<g>
	<path fill="#999999" d="M29.8,33.186h-2.11l-0.68-2.08h-3.299l-0.668,2.08h-2.098l3.322-9.076h2.273L29.8,33.186z M26.554,29.611
		l-1.031-3.146c-0.066-0.199-0.113-0.463-0.141-0.791h-0.053c-0.023,0.266-0.076,0.521-0.158,0.768l-1.037,3.17L26.554,29.611
		L26.554,29.611z"/>
	<path fill="#999999" d="M32.882,30.022v3.164h-1.934V24.11h3.123c2.258,0,3.387,0.957,3.387,2.871c0,0.93-0.341,1.675-1.022,2.235
		c-0.681,0.56-1.535,0.829-2.558,0.806H32.882z M32.882,25.61v2.93h0.838c1.137,0,1.705-0.494,1.705-1.482
		c0-0.965-0.563-1.447-1.688-1.447L32.882,25.61L32.882,25.61z"/>
	<path fill="#999999" d="M47.144,33.186v-5.508c0-0.508,0.025-1.146,0.076-1.916h-0.047c-0.117,0.582-0.211,0.971-0.281,1.166
		l-2.238,6.258h-1.541l-2.268-6.199c-0.055-0.148-0.15-0.557-0.287-1.225h-0.053c0.051,0.762,0.076,1.525,0.076,2.291v5.133h-1.746
		V24.11h2.813l1.957,5.484c0.164,0.453,0.275,0.879,0.334,1.277h0.041c0.121-0.496,0.246-0.926,0.375-1.289l1.963-5.473h2.736v9.076
		L47.144,33.186L47.144,33.186z"/>
</g>
<g>
	<path fill="#999999" d="M45.388,61.51H24.612l2.667-7H42.72L45.388,61.51z M27.388,59.51h15.225l-1.333-3H28.721L27.388,59.51z"/>
</g>
<g>
	<path fill="#999999" d="M52,65.552H18v-6h34V65.552z M20,63.552h30v-2H20V63.552z"/>
</g>
<g>
	<circle fill="#999999" cx="30.997" cy="39.49" r="1"/>
	<circle opacity="0.6" fill="#999999" enable-background="new    " cx="34.997" cy="39.49" r="1"/>
	<circle opacity="0.2" fill="#999999" enable-background="new    " cx="39.003" cy="39.49" r="1"/>
</g>
</svg>
