<?xml version="1.0" encoding="utf-8"?>
<!-- Generator: Adobe Illustrator 17.0.0, SVG Export Plug-In . SVG Version: 6.00 Build 0)  -->
<!DOCTYPE svg PUBLIC "-//W3C//DTD SVG 1.1//EN" "http://www.w3.org/Graphics/SVG/1.1/DTD/svg11.dtd">
<svg version="1.1" id="图层_1" xmlns="http://www.w3.org/2000/svg" xmlns:xlink="http://www.w3.org/1999/xlink" x="0px" y="0px"
	 width="70px" height="70px" viewBox="0 0 70 70" enable-background="new 0 0 70 70" xml:space="preserve">
<rect x="2" y="49.468" opacity="0.2" fill="#999999" width="66.25" height="4"/>
<g>
	<path fill="#999999" d="M69,5.468H1c-0.552,0-1,0.43-1,0.962v48.077c0,0.531,0.448,0.962,1,0.962h68c0.552,0,1-0.43,1-0.962V6.43
		C70,5.899,69.552,5.468,69,5.468z M68,47.468H22v2h46v3.115c0,0.489-0.422,0.885-0.943,0.885H2.943C2.422,53.468,2,53.072,2,52.583
		v-3.115h10v-2H2V8.353c0-0.489,0.422-0.885,0.943-0.885h64.114C67.578,7.468,68,7.864,68,8.353V47.468z"/>
	<rect x="14" y="47.468" fill="#999999" width="6" height="2"/>
</g>
<g>
	<rect x="18.958" y="15.468" fill="#999999" width="6" height="2"/>
	<path fill="#999999" d="M5,10.468v34h60v-34H5z M7,42.468v-25h9.958v-2H7v-3h56v3H26.958v2H63v25H7z"/>
</g>
<g>
	<path fill="#999999" d="M45.388,60.468H24.612l2.667-7H42.72L45.388,60.468z M27.388,58.468h15.225l-1.333-3H28.721L27.388,58.468z
		"/>
</g>
<g>
	<path fill="#999999" d="M52,64.51H18v-6h34V64.51z M20,62.51h30v-2H20V62.51z"/>
</g>
<g>
	<circle fill="#999999" cx="30.997" cy="38.448" r="1"/>
	<circle opacity="0.6" fill="#999999" enable-background="new    " cx="34.997" cy="38.448" r="1"/>
	<circle opacity="0.2" fill="#999999" enable-background="new    " cx="39.003" cy="38.448" r="1"/>
</g>
<g>
	<path fill="#999999" d="M10.453,28.227c0.487,0.404,1.04,0.605,1.66,0.605c0.352,0,0.616-0.061,0.793-0.182
		s0.266-0.277,0.266-0.467c0-0.164-0.07-0.319-0.211-0.465s-0.512-0.344-1.113-0.594c-0.945-0.401-1.418-0.984-1.418-1.75
		c0-0.563,0.214-1,0.643-1.311s0.995-0.467,1.701-0.467c0.591,0,1.087,0.077,1.488,0.23v1.211c-0.406-0.276-0.882-0.414-1.426-0.414
		c-0.317,0-0.571,0.058-0.762,0.174s-0.285,0.271-0.285,0.467c0,0.156,0.065,0.3,0.195,0.432s0.452,0.309,0.965,0.533
		c0.602,0.258,1.015,0.53,1.24,0.816s0.338,0.627,0.338,1.023c0,0.581-0.206,1.023-0.617,1.328s-0.996,0.457-1.754,0.457
		c-0.692,0-1.261-0.112-1.703-0.336V28.227z"/>
	<path fill="#999999" d="M16.68,29.23v2.508h-1.262V25.43h1.262v0.66h0.016c0.331-0.51,0.798-0.766,1.402-0.766
		c0.55,0,0.979,0.192,1.289,0.576s0.465,0.907,0.465,1.568c0,0.721-0.18,1.299-0.539,1.734s-0.831,0.652-1.414,0.652
		c-0.528,0-0.93-0.208-1.203-0.625H16.68z M16.66,27.84c0,0.307,0.083,0.559,0.25,0.754s0.383,0.293,0.648,0.293
		c0.315,0,0.561-0.123,0.736-0.367s0.264-0.591,0.264-1.039c0-0.792-0.309-1.188-0.926-1.188c-0.286,0-0.521,0.109-0.701,0.328
		s-0.271,0.5-0.271,0.844V27.84z"/>
	<path fill="#999999" d="M23.5,26.574c-0.153-0.088-0.34-0.133-0.559-0.133c-0.286,0-0.514,0.109-0.682,0.328
		s-0.252,0.52-0.252,0.902v2.078h-1.262v-4.32h1.262v0.813h0.016c0.208-0.591,0.587-0.887,1.137-0.887
		c0.148,0,0.262,0.017,0.34,0.051V26.574z"/>
	<path fill="#999999" d="M24.051,24.035c0-0.193,0.068-0.35,0.205-0.471s0.312-0.182,0.525-0.182c0.219,0,0.396,0.062,0.531,0.186
		s0.203,0.279,0.203,0.467c0,0.19-0.069,0.348-0.207,0.475s-0.313,0.189-0.527,0.189c-0.211,0-0.386-0.064-0.523-0.191
		S24.051,24.223,24.051,24.035z M24.145,29.75v-4.32h1.258v4.32H24.145z"/>
	<path fill="#999999" d="M30.637,29.75h-1.254v-2.41c0-0.698-0.251-1.047-0.754-1.047c-0.239,0-0.438,0.093-0.598,0.279
		s-0.238,0.424-0.238,0.713v2.465h-1.262v-4.32h1.262v0.688h0.016c0.315-0.529,0.778-0.793,1.391-0.793
		c0.958,0,1.438,0.594,1.438,1.781V29.75z"/>
	<path fill="#999999" d="M35.891,29.273c0,0.802-0.229,1.42-0.686,1.854s-1.115,0.65-1.975,0.65c-0.583,0-1.047-0.083-1.391-0.25
		v-1.078c0.448,0.26,0.899,0.391,1.355,0.391c0.45,0,0.803-0.121,1.057-0.361s0.381-0.575,0.381-1.002v-0.359h-0.02
		c-0.305,0.492-0.758,0.738-1.359,0.738c-0.544,0-0.979-0.194-1.307-0.582s-0.49-0.908-0.49-1.559c0-0.727,0.181-1.307,0.541-1.74
		s0.834-0.65,1.42-0.65c0.531,0,0.93,0.207,1.195,0.621h0.02V25.43h1.258V29.273z M34.645,27.313c0-0.287-0.087-0.528-0.26-0.725
		s-0.392-0.295-0.654-0.295c-0.308,0-0.55,0.121-0.729,0.361s-0.268,0.579-0.268,1.014c0,0.377,0.086,0.675,0.258,0.893
		s0.399,0.326,0.684,0.326c0.286,0,0.52-0.111,0.699-0.332s0.27-0.509,0.27-0.863V27.313z"/>
	<path fill="#999999" d="M41.473,29.531c-0.44,0.216-1.015,0.324-1.723,0.324c-0.911,0-1.635-0.273-2.17-0.818
		s-0.803-1.273-0.803-2.182c0-0.956,0.299-1.738,0.896-2.346s1.369-0.912,2.314-0.912c0.591,0,1.086,0.077,1.484,0.23v1.246
		c-0.409-0.24-0.872-0.359-1.391-0.359c-0.591,0-1.063,0.189-1.418,0.566s-0.531,0.871-0.531,1.48c0,0.594,0.168,1.072,0.504,1.434
		s0.79,0.543,1.363,0.543c0.539,0,1.03-0.13,1.473-0.391V29.531z"/>
	<path fill="#999999" d="M42.398,29.75v-6.395h1.258v6.395H42.398z"/>
	<path fill="#999999" d="M44.527,27.609c0-0.711,0.213-1.27,0.639-1.676s0.998-0.609,1.717-0.609c0.695,0,1.247,0.2,1.656,0.6
		s0.613,0.937,0.613,1.611c0,0.708-0.21,1.272-0.629,1.691s-0.987,0.629-1.703,0.629c-0.703,0-1.261-0.201-1.674-0.604
		S44.527,28.302,44.527,27.609z M45.805,27.594c0,0.862,0.352,1.293,1.055,1.293c0.675,0,1.012-0.443,1.012-1.328
		c0-0.844-0.34-1.266-1.02-1.266c-0.331,0-0.588,0.113-0.771,0.34S45.805,27.18,45.805,27.594z"/>
	<path fill="#999999" d="M54.082,29.75h-1.254v-0.66h-0.02c-0.323,0.51-0.765,0.766-1.324,0.766c-1.005,0-1.508-0.607-1.508-1.82
		V25.43h1.262v2.488c0,0.646,0.253,0.969,0.758,0.969c0.253,0,0.454-0.088,0.605-0.266s0.227-0.417,0.227-0.719V25.43h1.254V29.75z"
		/>
	<path fill="#999999" d="M59.395,29.75h-1.258v-0.609h-0.02c-0.305,0.477-0.755,0.715-1.352,0.715c-0.55,0-0.986-0.194-1.311-0.582
		s-0.486-0.917-0.486-1.586c0-0.708,0.182-1.279,0.545-1.713s0.838-0.65,1.424-0.65c0.563,0,0.956,0.203,1.18,0.609h0.02v-2.578
		h1.258V29.75z M58.156,27.305c0-0.292-0.088-0.533-0.264-0.725s-0.396-0.287-0.658-0.287c-0.308,0-0.549,0.122-0.725,0.365
		s-0.264,0.574-0.264,0.99c0,0.396,0.085,0.701,0.254,0.916s0.402,0.322,0.699,0.322c0.278,0,0.508-0.113,0.688-0.34
		s0.27-0.521,0.27-0.883V27.305z"/>
</g>
</svg>
