<?xml version="1.0" encoding="utf-8"?>
<!-- Generator: Adobe Illustrator 19.0.0, SVG Export Plug-In . SVG Version: 6.00 Build 0)  -->
<svg version="1.1" id="图层_1" xmlns="http://www.w3.org/2000/svg" xmlns:xlink="http://www.w3.org/1999/xlink" x="0px" y="0px"
	 viewBox="-442 244 14 14" style="enable-background:new -442 244 14 14;" xml:space="preserve">
<style type="text/css">
	.st0{fill:#999999;}
</style>
<path class="st0" d="M-438.8,246.9c-0.2,0-0.4,0.2-0.4,0.4l0,0c0,0.2,0.2,0.4,0.4,0.4h5.3c0.2,0,0.4-0.2,0.4-0.4s-0.2-0.4-0.4-0.4
	l0,0C-433.7,246.9-438.8,246.9-438.8,246.9z M-437.1,254.1c0.2,0,0.4-0.2,0.4-0.4s-0.2-0.4-0.4-0.4h-1.8c-0.2,0-0.4,0.2-0.4,0.4
	s0.2,0.4,0.4,0.4H-437.1z M-436.2,255.9h-3.9c-0.5,0-0.9-0.4-0.9-0.9v-9.1c0-0.5,0.4-0.9,0.9-0.9h7.8c0.5,0,0.9,0.4,0.9,0.9v3.5
	c0,0.2,0.2,0.4,0.4,0.4c0.2,0,0.4-0.2,0.4-0.4v-3.5c0-1-0.8-1.8-1.8-1.8h-7.8c-1,0-1.8,0.8-1.8,1.8v9.1c0,1,0.8,1.8,1.8,1.8h3.9
	c0.2,0,0.4-0.2,0.4-0.4C-435.8,256.1-436,255.9-436.2,255.9z M-436.2,250.1h-2.6c-0.2,0-0.4,0.2-0.4,0.4c0,0.2,0.2,0.4,0.4,0.4h2.6
	c0.2,0,0.4-0.2,0.4-0.4C-435.8,250.3-436,250.1-436.2,250.1z M-428.1,256.9l-1.3-1.3c0.4-0.5,0.6-1.1,0.6-1.8c0-1.7-1.4-3.1-3.1-3.1
	s-3.1,1.4-3.1,3.1c0,1.7,1.4,3.1,3.1,3.1c0.7,0,1.3-0.2,1.8-0.6l1.3,1.3c0.2,0.2,0.5,0.1,0.6,0C-428,257.4-427.9,257.1-428.1,256.9z
	 M-431.9,255.9c-1.2,0-2.2-1-2.2-2.2s1-2.2,2.2-2.2s2.2,1,2.2,2.2C-429.7,255-430.7,255.9-431.9,255.9z"/>
</svg>
