<?xml version="1.0" encoding="utf-8"?>
<!-- Generator: Adobe Illustrator 19.0.0, SVG Export Plug-In . SVG Version: 6.00 Build 0)  -->
<svg version="1.1" id="图层_1" xmlns="http://www.w3.org/2000/svg" xmlns:xlink="http://www.w3.org/1999/xlink" x="0px" y="0px"
	 viewBox="-288 413.9 14 14" style="enable-background:new -288 413.9 14 14;" xml:space="preserve">
<style type="text/css">
	.st0{fill:#999999;}
</style>
<path class="st0" d="M-287.1,426.9v-11.7h7.4v-0.8h-8.3v13.5h13.5v-7.9h-0.9v7.1H-287.1z"/>
<path class="st0" d="M-276.4,415.1l-6.1,6.1l-0.3,1.5l1.5-0.3l6.1-6.1C-275.2,416.3-276.4,415.1-276.4,415.1z M-274,416.3l-6.9,6.9
	l-3,0.7l0.7-3l6.9-6.9C-276.3,414-274,416.3-274,416.3z M-282.5,421.3l1.2,1.2l0.6-0.6l-1.2-1.2
	C-281.9,420.7-282.5,421.3-282.5,421.3z"/>
</svg>
