<?xml version="1.0" encoding="utf-8"?>
<!-- Generator: Adobe Illustrator 19.0.0, SVG Export Plug-In . SVG Version: 6.00 Build 0)  -->
<svg version="1.1" id="图层_1" xmlns="http://www.w3.org/2000/svg" xmlns:xlink="http://www.w3.org/1999/xlink" x="0px" y="0px"
	 viewBox="-288 413.9 14 14" style="enable-background:new -288 413.9 14 14;" xml:space="preserve">
<style type="text/css">
	.st0{fill:#999999;}
</style>
<path class="st0" d="M-278.5,420.9l0.9-0.9c0.4,0.1,0.9,0.1,1.3,0c0.5-0.1,1-0.4,1.4-0.8c0.4-0.4,0.7-0.9,0.8-1.4
	c0.1-0.5,0.1-1,0-1.5c0-0.2-0.2-0.3-0.3-0.3c-0.2,0-0.3,0-0.4,0.1l-1,1c-0.2,0.2-0.4,0.3-0.6,0.3s-0.5-0.1-0.6-0.3
	c-0.2-0.2-0.3-0.4-0.3-0.6s0.1-0.5,0.3-0.6l1-1c0.1-0.1,0.2-0.3,0.1-0.4c0-0.2-0.2-0.3-0.3-0.3c-0.5-0.1-1-0.1-1.6,0
	c-0.5,0.1-1,0.4-1.4,0.8c-0.4,0.4-0.7,0.9-0.8,1.4c-0.1,0.4-0.1,0.9,0,1.3l-1.8,1.9l-1.9-1.9c0,0,0-0.1,0-0.1c0,0,0,0,0,0l-0.7-1.8
	c0-0.1-0.1-0.1-0.1-0.2l-1.4-1.4c-0.2-0.2-0.4-0.2-0.6,0l-1.2,1.2c-0.2,0.2-0.2,0.4,0,0.6l1.4,1.4c0,0,0.1,0.1,0.1,0.1l1.8,0.7
	c0,0,0,0,0,0c0,0,0.1,0,0.1,0l1.9,1.9l-4.9,4.9c-0.3,0.3-0.5,0.8-0.5,1.2c0,0.5,0.2,0.9,0.5,1.2c0.3,0.3,0.8,0.5,1.2,0.5
	c0.4,0,0.9-0.2,1.2-0.5l4-4l4,4c0.3,0.3,0.8,0.5,1.2,0.5s0.9-0.2,1.2-0.5c0.7-0.7,0.7-1.8,0-2.5L-278.5,420.9z M-285.9,416.6l-1-1
	l0.6-0.6l1,1l0.4,1C-284.9,417-285.9,416.6-285.9,416.6z M-285.6,426.8c-0.3,0.3-0.9,0.3-1.2,0c-0.3-0.3-0.3-0.9,0-1.2l7.8-7.8
	l-0.1-0.2c-0.1-0.4-0.1-0.8,0-1.1c0.1-0.4,0.3-0.7,0.6-1c0.3-0.3,0.6-0.5,1-0.6c0.1,0,0.2,0,0.3-0.1l-0.3,0.3
	c-0.3,0.3-0.5,0.8-0.5,1.2s0.2,0.9,0.5,1.2c0.3,0.3,0.8,0.5,1.2,0.5s0.9-0.2,1.2-0.5l0.3-0.3c0,0.1,0,0.2-0.1,0.3
	c-0.1,0.4-0.3,0.7-0.6,1c-0.3,0.3-0.6,0.5-1,0.6c-0.4,0.1-0.8,0.1-1.1,0l-0.2-0.1L-285.6,426.8z M-275.2,426.7
	c-0.2,0.2-0.4,0.3-0.6,0.3s-0.4-0.1-0.6-0.3l-4-4l1.2-1.2l4,4C-274.8,425.8-274.8,426.4-275.2,426.7z"/>
</svg>
