<?xml version="1.0" encoding="utf-8"?>
<!-- Generator: Adobe Illustrator 19.0.0, SVG Export Plug-In . SVG Version: 6.00 Build 0)  -->
<svg version="1.1" id="图层_1" xmlns="http://www.w3.org/2000/svg" xmlns:xlink="http://www.w3.org/1999/xlink" x="0px" y="0px"
	 viewBox="-392 244 14 14" style="enable-background:new -392 244 14 14;" xml:space="preserve">
<style type="text/css">
	.st0{fill:#999999;}
</style>
<path class="st0" d="M-382.9,257.3v-4.2h1.4v0.7h-0.7v2.8h3.5v-2.8h-0.7v-0.7h1.4v4.2H-382.9z M-380.8,252.4h-4.9v-0.7V251h-3.5v4.2
	h-0.7v-4.9h0.7h3.5v-3.5h0.7v3.5v0.7v0.7h4.9v0.7v2.8h-0.7V252.4z M-384.3,248.2h0.7v-2.8h-3.5v2.8h0.7v0.7h-1.4v-4.2h4.9v4.2h-1.4
	V248.2z M-391.3,256.6h3.5v-2.8h-0.7v-0.7h1.4v4.2h-4.9v-4.2h1.4v0.7h-0.7V256.6z"/>
</svg>
